<?xml version="1.0" encoding="UTF-8" standalone="no"?>
<!-- Created with Inkscape (http://www.inkscape.org/) by Marsupilami -->

<svg
   xmlns:dc="http://purl.org/dc/elements/1.1/"
   xmlns:cc="http://creativecommons.org/ns#"
   xmlns:rdf="http://www.w3.org/1999/02/22-rdf-syntax-ns#"
   xmlns:svg="http://www.w3.org/2000/svg"
   xmlns="http://www.w3.org/2000/svg"
   xmlns:sodipodi="http://sodipodi.sourceforge.net/DTD/sodipodi-0.dtd"
   xmlns:inkscape="http://www.inkscape.org/namespaces/inkscape"
   version="1.1"
   width="659"
   height="768"
   viewBox="-4.0084113 -4.0084113 120.6305326 120.1806726"
   id="svg37375"
   inkscape:version="0.48.5 r10040"
   sodipodi:docname="ZHAW_Logo.svg">
  <metadata
     id="metadata8">
    <rdf:RDF>
      <cc:Work
         rdf:about="">
        <dc:format>image/svg+xml</dc:format>
        <dc:type
           rdf:resource="http://purl.org/dc/dcmitype/StillImage" />
      </cc:Work>
    </rdf:RDF>
  </metadata>
  <sodipodi:namedview
     pagecolor="#ffffff"
     bordercolor="#666666"
     borderopacity="1"
     objecttolerance="10"
     gridtolerance="10"
     guidetolerance="10"
     inkscape:pageopacity="0"
     inkscape:pageshadow="2"
     inkscape:window-width="1014"
     inkscape:window-height="674"
     id="namedview6"
     showgrid="false"
     inkscape:zoom="0.30729167"
     inkscape:cx="329.5"
     inkscape:cy="384"
     inkscape:window-x="0"
     inkscape:window-y="0"
     inkscape:window-maximized="0"
     inkscape:current-layer="svg37375" />
  <defs
     id="defs37377" />
  <path
     d="m 28.475746,18.29188 c -0.6825,0 -1.34875,0.0925 -1.98251,0.27625 -2.4325,0.79375 -4.065,3.04125 -4.06875,5.59625 0,2.56 1.63125,4.81 4.05876,5.60375 0.64125,0.1875 1.30874,0.28 1.9925,0.28 0,0 15.315,0 16.20249,0 -0.61874,0.67375 -22.44125,24.4025 -22.44125,24.4025 -1.25874,1.3525 -1.895,3.1125 -1.895,5.23125 l 0.0125,0.28 c 0.12626,2.569996 2.11,5.411232 6.16625,5.588732 l 0.39751,0.009 32.29874,0 c 0.69376,0 1.37,-0.0963 2.01376,-0.28625 2.4175,-0.802496 4.03874,-3.048736 4.03874,-5.591232 0,-2.54875 -1.62375,-4.79625 -4.04124,-5.5925 l -0.0125,-0.002 c -0.64001,-0.19 -1.31376,-0.28375 -2.00376,-0.28375 0,0 -17.83999,0 -18.73,0 0.61376,-0.67275 22.02251,-24.144 22.02251,-24.144 1.42249,-1.52375 2.23999,-3.30375 2.23999,-4.88125 l -0.0212,-0.6125 c -0.0675,-1.06875 -0.315,-2.0275 -0.7375,-2.85 -0.66751,-1.30375 -1.76376,-2.235 -3.17001,-2.6925 -0.6775,-0.22 -1.42,-0.33125 -2.21249,-0.33125 l -30.1275,0 m 1.86624,81.79357 c 0,4.68875 -4.255,9.20375 -11.20125,9.20375 -4.34125,0 -7.03249,-2.345 -7.03249,-5.21125 0,-3.82 2.86374,-5.469992 8.16124,-6.248738 l 4.60125,-0.696248 c 1.47625,-0.261248 4.08126,-0.696246 5.47125,-1.99874 l 0,4.951226 z m 14.25,10.26625 c -0.3775,-1.30125 -0.8525,-2.92125 -0.8525,-6.1 l 0,-21.27242 c 0,-8.864958 -7.56375,-13.746186 -21.29999,-13.746186 -12.88751,0 -20.83125,6.108722 -20.83125,11.968694 0,3.251236 2.63499,5.887474 5.88749,5.887474 1.41125,0 2.70626,-0.497498 3.72001,-1.324994 0.64624,-0.479998 1.24124,-1.052496 1.84625,-1.642494 1.95624,-1.90499 4.17499,-4.06373 9.28999,-4.06373 3.51375,0 7.2675,1.178744 7.2675,4.486228 0,2.888738 -1.62875,3.603734 -4.83,3.967482 l -7.72499,0.869996 c -9.07875,1.051246 -18.35501,3.697484 -18.35501,15.3037 0,8.55125 7.65126,13.66125 15.04875,13.66125 6.94875,0 12.32875,-2.1025 16.81876,-6.53 0.70375,4.21625 3.48874,6.53 8.01249,6.53 3.61875,0 6.455,-2.45375 6.455,-5.58625 0,-0.8625 -0.21,-1.57875 -0.4525,-2.40875 m 23.62876,-104.15482 -0.001,52.095 c 0.001,4.008746 3.26125,7.267482 7.26875,7.267482 3.95375,0 7.21251,-3.214986 7.26625,-7.167482 0,-0.004 0,-0.1 0,-0.1 l 0,-20.92375 c 0,-5.59375 4.52,-9.055 8.706264,-9.055 6.142482,0 7.058738,4.9125 7.058738,7.84 l 0,22.13875 0,0.12125 c 0.0637,3.938746 3.319992,7.144982 7.259992,7.146232 4.01125,0 7.2725,-3.261236 7.2725,-7.267482 l 0,-24.6575 c 0,-11.02125 -6.31875,-17.6 -16.904992,-17.6 -5.357504,0 -9.968752,1.8625 -13.396252,5.3625 0,-0.9175 0,-15.19875 0,-15.19875 l 0,-0.13 c -0.0712,-3.93625 -3.33,-7.13875 -7.265,-7.13875 -4.0075,0 -7.26749,3.26 -7.26749,7.2675 m 31.312498,67.628692 c 0,0.002 -0.23376,0.849996 -0.23376,0.849996 l -0.294988,1.272494 c 0,0 -4.762508,21.174902 -5.515004,24.514888 -0.18876,-0.876248 -4.761258,-21.998648 -4.761258,-21.998648 -0.20125,-0.901246 -0.477498,-2.071242 -0.824986,-3.158736 l -0.31376,-0.903746 c -1.328742,-3.202486 -4.422492,-5.269976 -7.887502,-5.269976 -3.31375,0 -6.35374,1.943742 -7.7475,4.954978 -0.24,0.627496 -0.45749,1.326244 -0.66249,2.14874 -0.19375,0.763746 -0.35876,1.543742 -0.50376,2.23249 0,0 -4.04,18.96116 -4.70499,22.082398 -0.20375,-0.852498 -5.92376,-24.622388 -5.92376,-24.622388 l -0.24625,-1.011244 c -0.15749,-0.622498 -0.3025,-1.116246 -0.45625,-1.556244 -1.09499,-2.562488 -3.59749,-4.22123 -6.37624,-4.22998 -2.0125,0.008 -3.93876,0.884996 -5.28501,2.40624 -0.98374,1.136244 -1.5625,2.526238 -1.67374,4.02123 0,0.003 -0.0125,0.30375 -0.0125,0.30375 0,0.411248 0.0175,0.814996 0.0587,1.228744 0.13876,1.443742 0.49876,2.592488 0.84625,3.702482 l 9.28751,30.21491 0.20125,0.64 0.47249,1.38625 c 1.42751,3.2725 4.65126,5.39625 8.21626,5.41375 l 0.0675,0.001 c 3.71,-0.01 6.99001,-2.2475 8.35375,-5.7 0,-0.007 0.42876,-1.5175 0.42876,-1.5175 0,-0.009 0.0737,-0.2875 0.0737,-0.2875 0,0 5.27751,-21.028702 5.46625,-21.786198 0.1925,0.771246 5.53751,22.067448 5.53751,22.067448 l 0.39374,1.40625 c 1.3175,3.47125 4.69125,5.80625 8.396254,5.8175 l 0.075,-0.001 c 3.488742,-0.0187 6.68373,-2.08125 8.14123,-5.255 0.19,-0.505 0.3775,-1.0525 0.575,-1.6825 l 0.15876,-0.50625 9.28999,-30.21116 c 0.3475,-1.116244 0.7075,-2.26874 0.84501,-3.702482 0.0388,-0.413748 0.0588,-0.817496 0.0588,-1.228744 l -0.0125,-0.30375 c -0.11124,-1.498742 -0.6925,-2.888736 -1.675,-4.02498 -1.35125,-1.519994 -3.275,-2.39499 -5.28249,-2.40249 -2.96001,0.009 -5.59375,1.897492 -6.557506,4.694978"
     id="path12192"
     style="fill:#1266ac;fill-opacity:1;fill-rule:nonzero;stroke:none"
     inkscape:connector-curvature="0" />
</svg>
