<?xml version="1.0" encoding="UTF-8" standalone="no"?>
<!-- Created with Inkscape (http://www.inkscape.org/) -->

<svg
   xmlns:dc="http://purl.org/dc/elements/1.1/"
   xmlns:cc="http://creativecommons.org/ns#"
   xmlns:rdf="http://www.w3.org/1999/02/22-rdf-syntax-ns#"
   xmlns:svg="http://www.w3.org/2000/svg"
   xmlns="http://www.w3.org/2000/svg"
   xmlns:xlink="http://www.w3.org/1999/xlink"
   xmlns:sodipodi="http://sodipodi.sourceforge.net/DTD/sodipodi-0.dtd"
   xmlns:inkscape="http://www.inkscape.org/namespaces/inkscape"
   width="800"
   height="600"
   id="svg3361"
   sodipodi:version="0.32"
   inkscape:version="0.48.5 r10040"
   version="1.0"
   sodipodi:docname="Anatomy_of_the_Human_Ear_labeled.svg"
   inkscape:output_extension="org.inkscape.output.svg.inkscape"
   viewBox="0 0 800 600">
  <defs
     id="defs3363">
    <inkscape:perspective
       sodipodi:type="inkscape:persp3d"
       inkscape:vp_x="0 : 526.18109 : 1"
       inkscape:vp_y="0 : 1000 : 0"
       inkscape:vp_z="744.09448 : 526.18109 : 1"
       inkscape:persp3d-origin="372.04724 : 350.78739 : 1"
       id="perspective3369" />
    <inkscape:perspective
       id="perspective2390"
       inkscape:vp_z="744.09448 : 526.18109 : 1"
       inkscape:vp_x="0 : 526.18109 : 1"
       sodipodi:type="inkscape:persp3d"
       inkscape:vp_y="0 : 1000 : 0"
       inkscape:persp3d-origin="372.04724 : 350.78739 : 1" />
    <inkscape:perspective
       id="perspective10"
       inkscape:vp_z="744.09448 : 526.18109 : 1"
       inkscape:vp_x="0 : 526.18109 : 1"
       sodipodi:type="inkscape:persp3d"
       inkscape:vp_y="0 : 1000 : 0"
       inkscape:persp3d-origin="372.04724 : 350.78739 : 1" />
    <linearGradient
       id="linearGradient2493"
       inkscape:collect="always">
      <stop
         id="stop2495"
         offset="0"
         style="stop-color:#fce94f;stop-opacity:1;" />
      <stop
         id="stop2497"
         offset="1"
         style="stop-color:#fce94f;stop-opacity:0;" />
    </linearGradient>
    <linearGradient
       id="linearGradient3313"
       inkscape:collect="always">
      <stop
         id="stop3315"
         offset="0"
         style="stop-color:#edd400;stop-opacity:1;" />
      <stop
         id="stop3317"
         offset="1"
         style="stop-color:#edd400;stop-opacity:0;" />
    </linearGradient>
    <linearGradient
       id="linearGradient3321"
       inkscape:collect="always">
      <stop
         id="stop3323"
         offset="0"
         style="stop-color:#edd400;stop-opacity:1;" />
      <stop
         id="stop3325"
         offset="1"
         style="stop-color:#edd400;stop-opacity:0;" />
    </linearGradient>
    <linearGradient
       id="linearGradient3329"
       inkscape:collect="always">
      <stop
         id="stop3331"
         offset="0"
         style="stop-color:#9fe859;stop-opacity:1;" />
      <stop
         id="stop3333"
         offset="1"
         style="stop-color:#9fe859;stop-opacity:0;" />
    </linearGradient>
    <linearGradient
       id="linearGradient3353"
       inkscape:collect="always">
      <stop
         id="stop3355"
         offset="0"
         style="stop-color:#cc0000;stop-opacity:1;" />
      <stop
         id="stop3357"
         offset="1"
         style="stop-color:#cc0000;stop-opacity:0;" />
    </linearGradient>
    <linearGradient
       inkscape:collect="always"
       xlink:href="#linearGradient2493"
       id="linearGradient4018"
       gradientUnits="userSpaceOnUse"
       x1="371.42856"
       y1="254.85715"
       x2="187.14285"
       y2="-13.714286"
       gradientTransform="translate(10.250329,3.7269073)" />
    <linearGradient
       inkscape:collect="always"
       xlink:href="#linearGradient3329"
       id="linearGradient4037"
       gradientUnits="userSpaceOnUse"
       x1="321.73358"
       y1="313.69278"
       x2="188.89853"
       y2="316.35541"
       gradientTransform="translate(10.250329,3.726907)" />
    <linearGradient
       inkscape:collect="always"
       xlink:href="#linearGradient3313"
       id="linearGradient4042"
       gradientUnits="userSpaceOnUse"
       x1="661.14484"
       y1="286.41864"
       x2="733.87585"
       y2="264.19528"
       gradientTransform="translate(10.250329,3.7269073)" />
    <linearGradient
       inkscape:collect="always"
       xlink:href="#linearGradient3353"
       id="linearGradient4045"
       gradientUnits="userSpaceOnUse"
       x1="509.62198"
       y1="324.29938"
       x2="637.40625"
       y2="450.56845"
       gradientTransform="translate(10.250329,3.7269073)" />
    <linearGradient
       inkscape:collect="always"
       xlink:href="#linearGradient3321"
       id="linearGradient4048"
       gradientUnits="userSpaceOnUse"
       x1="567.5"
       y1="231.68492"
       x2="706.6521"
       y2="231.68492"
       gradientTransform="translate(10.250329,3.7269073)" />
  </defs>
  <sodipodi:namedview
     id="base"
     pagecolor="#ffffff"
     bordercolor="#666666"
     borderopacity="1.0"
     gridtolerance="10000"
     guidetolerance="10"
     objecttolerance="10"
     inkscape:pageopacity="0.0"
     inkscape:pageshadow="2"
     inkscape:zoom="0.94316065"
     inkscape:cx="457.93981"
     inkscape:cy="324.93709"
     inkscape:document-units="px"
     inkscape:current-layer="layer1_Ear"
     showgrid="false"
     inkscape:window-width="891"
     inkscape:window-height="877"
     inkscape:window-x="139"
     inkscape:window-y="20"
     inkscape:window-maximized="0" />
  <metadata
     id="metadata3366">
    <rdf:RDF>
      <cc:Work
         rdf:about="">
        <dc:format>image/svg+xml</dc:format>
        <dc:type
           rdf:resource="http://purl.org/dc/dcmitype/StillImage" />
      </cc:Work>
    </rdf:RDF>
  </metadata>
  <g
     inkscape:label="Ear"
     inkscape:groupmode="layer"
     id="layer1_Ear"
     sodipodi:insensitive="true">
    <path
       style="fill:url(#linearGradient4048);fill-opacity:1;stroke:none"
       d="m 579.89319,229.11977 c 0,0 41.78571,3.57142 93.21428,-6.07143 51.42858,-9.64286 46.25,0.89285 39.82143,2.32143 -6.42857,1.42857 -104.64285,15.89285 -127.32143,26.42857 -7.67857,-5.89286 -7.85714,-9.28572 -7.85714,-9.28572 l 2.14286,-13.39285 z"
       id="Vestibular_Nerve"
       inkscape:label="#path2517"
       inkscape:connector-curvature="0" />
    <path
       style="fill:url(#linearGradient4045);fill-opacity:1;stroke:none"
       d="m 629.34757,460.86134 c 0,0 -12.50064,-28.53681 -41.79506,-57.57869 -29.29442,-29.04189 -48.23478,-39.14342 -48.23478,-39.14342 0,0 -34.34519,4.79823 -48.9924,-8.33375 4.04061,-7.82869 10.35406,-28.78935 -21.46574,-64.39723 -14.64722,-10.85914 -27.27412,-15.9099 -27.27412,-15.9099 6.56599,-1.76777 6.81853,-6.56599 2.77792,-12.37437 -4.04061,-5.80838 -14.14214,-24.4962 -8.83884,-28.78935 5.3033,-4.29315 24.24366,-11.86929 38.13326,-6.81853 13.8896,5.05077 9.09137,13.63706 12.62691,17.67767 3.53553,4.04061 16.16244,12.87945 16.16244,12.87945 l 5.80838,11.86929 8.33375,0.75761 10.10153,-6.31345 19.44544,5.55584 8.58629,6.81853 0.75762,5.80838 c 0,0 -7.57615,1.76776 -9.34391,1.01015 -3.283,5.05076 -15.15229,11.11168 -15.15229,11.11168 0,0 -8.5863,14.89975 -7.82868,20.45559 0.75761,5.55584 1.76776,29.04188 27.77919,34.34518 26.01143,5.3033 -3.283,-9.09137 16.16244,12.12183 19.44544,21.21321 63.89215,58.84139 63.89215,58.84139 l 36.61803,44.69925 -38.25953,-4.29315 z"
       id="Tympanic_Cavity"
       sodipodi:nodetypes="csccccsssscccccccccsssccc"
       inkscape:label="#path2501"
       inkscape:connector-curvature="0" />
    <path
       style="fill:url(#linearGradient4042);fill-opacity:1;stroke:none"
       d="m 641.72194,270.57385 c 4.41942,4.16688 15.78363,16.66752 15.78363,16.66752 l 6.566,10.85914 4.79822,14.64721 c 0,0 15.5311,-21.59201 41.41625,-27.40038 25.88516,-5.80838 42.93149,-10.35407 42.93149,-10.35407 l -17.5514,-12.87944 -35.1028,9.59645 -44.19418,2.0203 -14.64721,-3.15673 z"
       id="Cochlear_Nerve"
       inkscape:label="#path2473"
       inkscape:connector-curvature="0" />
    <path
       style="fill:#729fcf"
       d="m 450.40658,231.82066 c -3.69668,2.50623 2.74557,8.4195 -2.40625,9.4375 -6.10579,3.81432 -4.13457,12.11582 -0.0625,16.78125 1.13684,1.90416 4.9473,6.24906 0.51442,6.69712 -4.79754,1.36059 -1.0134,7.73163 3.01683,6.11538 3.75628,-0.87732 3.66568,3.80454 1.9375,5.875 -1.76199,5.773 6.46807,7.43634 9.4375,10.71875 4.05105,2.06632 4.25501,-3.33823 5.0625,-5.84375 2.26827,-4.82937 8.65416,2.88708 10.375,-2.59375 1.00343,-5.11329 -4.36364,-7.96118 -8.71875,-7.78125 -3.25114,-1.84963 1.76282,-5.31112 2.40625,-7.5625 3.84139,-7.9365 -4.29237,-14.68739 -9.71875,-19.09375 -4.43641,-3.53614 -5.75803,-10.06625 -10.375,-13.09375 -0.51016,0.0449 -1.10592,-0.20001 -1.46875,0.34375 z"
       id="Malleus"
       inkscape:label="#path54"
       inkscape:connector-curvature="0" />
    <path
       style="fill:#ad7fa8;fill-opacity:1"
       d="m 561.59408,166.22691 c -12.31098,0.62797 -23.45893,8.95797 -28.84375,19.78125 -4.64664,0.37143 -5.32089,2.36219 -7.97768,4.50893 -5.34174,7.23606 -5.67372,17.36618 -1.08482,24.95982 -11.04079,-0.58149 -24.13644,-0.28512 -32.3125,8.09375 -6.77722,8.49834 0.38179,20.41249 8.90625,24.4375 8.90374,5.70822 19.84204,4.60421 29.5625,7.03125 0.96569,3.09497 -5.62944,8.32702 -4.38663,10.18331 10.53134,1.55733 24.38383,2.90141 29.73038,13.50419 1.65434,3.62851 -2.69259,6.63611 -6.09176,4.99947 -5.24168,-0.45793 -8.09428,5.96216 -13.12699,7.46928 -6.84805,3.45632 -10.20081,11.61996 -11.71875,18.78125 -2.92052,13.88549 3.9257,28.60736 16.15616,35.50563 7.1339,4.78598 18.44071,5.84433 24.71583,5.16287 22.58429,9.72164 48.51162,18.58336 72.90926,10.144 16.72453,-4.79384 30.50407,-19.66915 31.1875,-37.5625 2.01126,-34.12943 -31.05904,-65.93879 -65.21875,-61.0625 -6.14514,0.53764 -14.12275,4.27819 -17.75,6.84375 4.47882,-3.77691 0.19012,-9.99797 -1.375,-14.25 -2.97191,-6.10911 -8.50461,-10.67804 -12.0625,-16.21875 0.18764,-2.00277 -1.31128,-5.78261 -1.53125,-6.375 2.71644,2.51904 2.1345,9.61636 7.15625,8.375 2.62049,-3.94886 0.84091,-9.59529 2.71875,-14.0625 2.20836,-6.90045 8.70588,-11.95664 9.53125,-19.46875 3.9515,-14.01396 -0.62344,-31.3812 -14.4375,-38.0625 -4.44231,-2.51518 -9.6314,-2.85641 -14.65625,-2.71875 z m 2.71875,12.65625 c 7.13274,-1.39596 14.03588,4.62279 13.5625,11.9375 0.47775,6.22326 -3.31066,11.4807 -4.6875,17.28125 -1.13871,-8.4841 -2.74345,-19.51743 -12.125,-22.8125 -3.44163,-1.37437 -7.12775,-1.90638 -10.84375,-2.125 4.2548,-2.64559 9.10484,-4.12528 14.09375,-4.28125 z m -18.9375,15.90625 c 9.95663,-0.85759 18.94493,8.26673 17.875,18.28125 -0.0996,4.57439 0.1862,9.42571 2.65625,13.375 -9.0431,-4.68049 -21.44718,-6.28757 -25.75,-16.96875 -1.98182,-4.42264 -1.96477,-9.56534 -0.1875,-14.09375 2.72953,0.67271 2.40971,-0.54966 5.40625,-0.59375 z m -10.53125,26.53125 c 1.78508,1.90643 6.02995,6.16137 5.875,6.25 -2.09323,-2.37299 -4.50689,-4.49696 -6.53125,-6.96875 l 0.65625,0.71875 z m -18.6875,4.59375 c 8.77916,0.24519 23.74096,3.72796 28.17857,12.19643 6.29085,1.27207 -1.61902,-9.20695 0.47768,-4.69643 1.47306,2.86945 2.90058,7.21773 2,9.75 -13.74754,-1.23144 -29.03759,1.54813 -41.40625,-5.5 -3.00645,-1.5724 -7.99084,-7.497 -2.875,-9.59375 4.25135,-1.83523 9.0188,-1.99622 13.625,-2.15625 z m 87.375,62.34375 c 16.06476,-0.64055 33.35462,12.59077 32.1875,29.6875 0.91376,10.62267 -5.96654,21.67913 -16.84375,23.34375 -10.26216,0.56965 -21.18371,4.62677 -31.15625,-0.1875 -12.88637,-4.77072 -16.60576,-20.40482 -14.28125,-32.6875 -0.66844,-3.59672 -2.13647,-7.07271 -2.0625,-10.8125 0.24891,2.89397 1.41455,5.62151 2.15625,8.46875 6.01672,-10.98514 17.13294,-18.60626 30,-17.8125 z m -62.90625,32.40625 c 6.69352,0.65321 11.06067,8.84804 8.625,14.84375 -2.89976,2.74602 -6.04306,-1.304 -8.65625,-2.8125 -3.01589,-2.31271 -6.24025,-11.52303 0.0312,-12.03125 z"
       id="Cochlea"
       sodipodi:nodetypes="ccccccccccccccccccccccccccccccccccccccccccccccccccccccccccccc"
       inkscape:label="#path18"
       inkscape:connector-curvature="0" />
    <path
       style="fill:url(#linearGradient4037);fill-opacity:1"
       d="m 215.78158,282.00816 c -12.55562,1.94339 -27.8078,3.86227 -35.34375,15.375 -5.52382,10.73376 1.85121,22.52342 8.03125,31.21875 5.80848,7.86088 12.08654,15.7087 18.5,22.90625 21.39411,8.67302 45.43677,8.11749 67.40625,2.59375 25.08849,-6.16381 49.26985,-16.02714 75.24531,-17.94052 31.15376,-2.93452 63.17859,-1.13139 92.61387,10.02497 9.40226,2.79706 19.09303,6.0621 29.04707,4.5718 -8.68078,-5.35721 -18.62919,-9.25432 -24.40625,-18.28125 -6.75494,-10.06923 -13.89105,-22.05966 -11.25,-34.5 1.9076,-4.29003 6.51661,-6.30926 10.21875,-8.75 -21.60951,-6.72488 -44.06343,0.22574 -65.7904,1.95719 -49.9412,6.88875 -101.98244,9.40637 -150.75763,-4.78737 -4.58982,-1.27373 -8.95431,-3.27125 -13.51447,-4.38857 z"
       id="Ext_Auditory_Canal"
       inkscape:label="#path58"
       inkscape:connector-curvature="0" />
    <path
       style="fill:#5c3566"
       d="m 540.40658,320.07066 c -6.04272,1.31835 -3.91982,9.09676 -1.25,12.65625 2.13162,4.99179 10.74388,7.47276 12.4375,0.9375 0.45141,-5.85821 -5.28047,-13.16858 -11.1875,-13.59375 z"
       id="Round_Window"
       inkscape:label="#path12"
       inkscape:connector-curvature="0" />
    <path
       d="m 674.75033,467.64691 c 0.38,0 0.59,0.17 0.46,0.37 -0.41,0.68 -2.21,0.4 -4.51,-0.7 -4.11,-1.95 -7.65,-5.08 -14.8,-13.05 -1.101,-1.23 -4.561,-5.62 -7.69,-9.76 -12.26,-16.23 -15.49,-19.91 -24.16,-27.601 -2.479,-2.199 -5.02,-4.52 -5.64,-5.149 -0.63,-0.63 -5.7,-5.03 -11.271,-9.78 -13.54,-11.53 -27.3,-23.63 -31.21,-27.45 -2.77,-2.69 -18.59143,-22.64429 -18.60043,-23.32429 0,-0.17 1.06,-0.19 2.35,-0.04 1.7,0.19 1.07143,-1.85142 2.87,1 4.29,6.06 13.90143,18.04429 17.90143,21.69429 7.2,6.59 24.189,21.56 33.819,29.82 2.271,1.95 4.561,4 5.08,4.55 0.511,0.56 3.42,3.15 6.46,5.77 8.971,7.721 18.41,18.65 30.41,35.211 1.721,2.38 3.23,4.409 3.36,4.52 0.13,0.1 1.39,1.68 2.8,3.51 4.751,6.129 9.831,10.409 12.371,10.409 z"
       id="path7777"
       sodipodi:nodetypes="cscccssccsscccsccscc"
       inkscape:label="#path16"
       inkscape:connector-curvature="0" />
    <path
       d="m 653.94033,433.74691 c 4.42,5.83 10.25,15.521 9.689,16.08 -0.1,0.091 -0.84,-0.64 -1.66,-1.64 -0.819,-0.99 -3.08,-3.92 -5.02,-6.5 -11.73,-15.62 -27.33,-31.49 -42.78,-43.53 -8.85,-6.89 -16.99,-14.2 -25.86,-23.22 -6.119,-6.21 -11.09,-12.26 -10.079,-12.26 0.189,0 3.13,2.59 6.529,5.75 3.4,3.16 7.38,6.75 8.86,7.99 1.47,1.24 4.85,4.21 7.52,6.61 4.431,3.99 7.551,6.63 18.931,16.08 14.19,11.79 24.77,22.6 33.87,34.64 z"
       id="path20"
       inkscape:connector-curvature="0" />
    <path
       sodipodi:nodetypes="csssssscccccccccccccssssccsccccscc"
       d="m 634.08033,310.38691 c 0.74,2.37 0.87,3.6 0.85,7.71 -0.02,4.24 -0.16,5.3 -1.02,7.9 -2.12,6.4 -6.101,10.77 -11.48,12.58 -2.109,0.71 -5.72,1.07 -5.72,0.57 0,-0.12 0.49,-0.84 1.09,-1.6 0.601,-0.76 1.63,-2.83 2.311,-4.59 0.3,-0.79 0.54,-1.48 0.72,-2.13 0.42,-1.43 0.59,-2.71 0.689,-4.71 0.221,-4.36 -0.17,-6.14 -2.229,-10.37 -1.76,-3.61 -4.23,-6.06 -8.18,-8.13 -2.891,-1.51 -4.54,-1.98 -8,-2.28 -4.82,-0.41 -10.86,2.34 -13.86,6.32 -3.06,4.05 -4.08,9.77 -2.4,13.4 1.23,2.64 3.53,4.99 5.641,5.74 2.62,0.94 5.979,0.86 8.04,-0.19 2.64,-1.35 2.37,-1.75 -1.021,-1.52 -3.38,0.24 -5.029,-0.36 -7.12,-2.58 -1.85,-1.97 -2.43,-3.46 -2.46,-6.3 -0.04,-4.49 2.221,-8.03 6.551,-10.23 1.8,-0.91 2.609,-1.1 4.909,-1.1 7.17,0 13.63,3.82 16.38,9.69 0.931,1.99 1.011,2.55 1.011,6.88 0,2.86 0.354,4.47875 0.055,5.53875 -0.18,0.64 -0.845,0.78125 -1.295,1.70125 -2.29,4.65 -6.43,7.75 -12.13,9.09 -2.94,0.7 -8.37,0.71 -11.49,0.03 -7.15,-1.56 -12.39,-5.59 -15.51,-11.92 -2.53,-5.14 -3.271,-8.33 -3.24,-14.05 0.021,-4.57 0.1,-5.1 1.25,-8.16 1.72,-4.59 3.89,-7.77 7.4,-10.86 6.729,-5.91 14.42,-8.18 23.62,-6.96 7.31,0.97 10.85,2.47 17.6,7.46 4.278,3.16 7.338,7.6 9.038,13.07 z"
       id="path22"
       style="fill:#ad7fa8"
       inkscape:connector-curvature="0" />
    <path
       d="m 569.91033,148.95691 c 7.06,-1.16 16.52,-1.14 15.34,0.04 -0.19,0.19 -3.24,0.94 -6.79,1.67 -15.76,3.25 -27.92,8.02 -38.31,15.04 -6.58,4.45 -9.221,6.61 -15.42,12.61 -9.761,9.44 -17.061,14.65 -28.75,20.5 -5.431,2.72 -17.19,7.64 -23.36,9.78 -2.79,0.97 -5.42,1.92 -5.83,2.11 -3.19,1.51 -25.63,7.61 -32.92,8.94 -18.34,3.37 -31.61,5.01 -46.09,5.71 -8.561,0.41 -10.61,0.41 -19.24,-0.02 -10.771,-0.53 -20.21,-1.85 -27.13,-3.78 -2.12,-0.6 -4.19,-1.09 -4.59,-1.09 -2.551,0 -19.07,-7.76 -22.18,-10.42 -0.33,-0.28 -2.31,-1.76 -4.4,-3.3 -17.51,-12.88 -30.98,-31.99 -42.58,-60.39 -4.22,-10.32 -13.3,-37.04 -21.75,-63.960003 -1.98,-6.31 -4.43,-14.08 -5.45,-17.26 -1.01,-3.18 -1.85,-6.15 -1.85,-6.6 0,-0.45 -0.41,-2.24 -0.91,-3.99 -2.47,-8.62 -4.9,-19.13 -4.52,-19.51 0.44,-0.44 1.44,1.25 3.37,5.71 1.13,2.63 2.06,5.04 2.06,5.36 0,0.53 5.6,15.97 6.41,17.67 0.78,1.64 10.04,28.31 18.61,53.610003 6.54,19.31 10.23,28.39 16.57,40.83 8.68,17.01 19.45,30.84 31.9,40.94 6.98,5.66 12.26,8.86 19.93,12.07 13.1,5.49 23.96,7.34 44.279,7.55 12.25,0.13 16.381,-0.05 26.9,-1.13 9.36,-0.97 27.19,-3.93 31.04,-5.15 0.72,-0.24 1.82,-0.48 2.43,-0.55 1.83,-0.22 15.101,-3.73 21.11,-5.6 6.75,-2.1 17.35,-5.94 19.82,-7.18 0.979,-0.5 1.779,-0.83 1.779,-0.74 0,0.52 12.78,-5.32 18.25,-8.34 6.73,-3.72 11.341,-7.15 20.32,-15.13 17.232,-15.32 32.002,-22.71 51.952,-26 z"
       id="path28"
       inkscape:connector-curvature="0" />
    <path
       style="fill:#204a87"
       d="m 524.06283,264.75816 c -2.48626,1.45348 -4.61978,3.59163 -5.3125,6.25 -3.56423,4.17933 -9.14326,8.84786 -5.82143,15.125 -0.36032,2.81517 0.0271,5.241 2.54018,6.5 2.35613,4.5882 6.6884,0.43323 10.53125,1.53125 7.51596,0.69897 14.13876,-4.46706 19.71875,-8.78125 2.52699,-1.90317 7.91203,1.16575 9.75,-3.0625 2.23556,-5.60088 -4.56065,-9.77494 -8.625,-12.125 -6.9494,-3.6005 -15.23328,-5.65166 -22.78125,-5.4375 z m 2.59375,9.46875 c 1.35021,4.14345 7.77943,2.76446 10.78125,5.8125 0.0933,1.8947 -5.0936,3.83425 -7.4375,4.625 -3.23111,0.70258 -8.56043,1.93236 -10.71875,-1 0.34906,-4.0058 5.09775,-6.80029 7.375,-9.4375 z m 14.875,2.0625 c 0.16646,0.10939 -0.39722,0.18659 0,0 z"
       id="Stapes"
       sodipodi:nodetypes="cccccccccccccccc"
       inkscape:connector-curvature="0" />
    <path
       d="m 551.91033,331.64691 c 0.12,2.43 0.061,3.29007 -0.57,4.32 -2.04179,3.33269 -5.73241,3.28637 -8.62393,1.32964 -4.36231,-2.95202 -7.64507,-7.54964 -7.64507,-12.58964 0.01,-5.11 4.42,-7.52 9.31,-5.08 4.409,2.19 7.279,6.78 7.529,12.02 z m -3.01,2.97 c 1.17,-1.31 1.08,-3.02 -0.311,-5.66 -1.92,-3.68 -5.59,-6.91 -7.84,-6.91 -0.43,0 -1.15,0.36 -1.59,0.8 -2.26,2.27 1.38,10.53 5.479,12.42 1.832,0.84 3.102,0.65 4.262,-0.65 z"
       id="path40"
       sodipodi:nodetypes="csscccccsscc"
       inkscape:connector-curvature="0" />
    <path
       d="m 545.36033,276.08691 c 0.93,1.03 0.449,1.67 -1.11,1.49 -1.14,-0.13 -1.38,0.02 -2.44,1.57 -2.27,3.29 -7.3,6.48 -12.18,7.72 -3.14,0.8 -7.89,0.74 -9.79,-0.13 -2.01,-0.91 -2.63,-1.74 -2.58,-3.46 0.05,-2.18 1.521,-4.26 6.33,-8.95 4.11,-4.02 4.45,-4.26 5.58,-4.04 1.6,0.3 3.65,1.58 3.65,2.27 0,0.39 -0.59,0.64 -1.891,0.81 -1.72,0.23 -2.6,0.68 -2.16,1.12 0.091,0.09 1.351,0.47 2.801,0.86 1.46,0.38 3.58,1.2 4.72,1.81 l 2.08,1.13 0.61,-1.03 c 0.329,-0.57 0.609,-1.47 0.609,-2.01 0,-0.89 0.13,-0.98 1.521,-0.98 1.68,0 3.19,0.65 4.25,1.82 z m -17.23,8.89 c 3.68,-0.94 8.45,-3.6 8.45,-4.72 0,-0.85 -7.63,-2.95 -10.78,-2.97 -1.359,-0.01 -1.78,0.21 -3.26,1.71 -2.72,2.76 -3.23,5.17 -1.3,6.1 1.24,0.59 4.31,0.54 6.89,-0.12 z"
       id="path9999"
       inkscape:label="#path42"
       inkscape:connector-curvature="0" />
    <path
       style="fill:#3465a4"
       d="m 471.81283,245.97691 c -3.33576,-0.41285 -6.99715,4.11697 -3.1875,6.03125 4.7827,4.64538 2.67893,11.72121 -0.84375,16.28125 -0.79619,5.8001 8.45679,3.05951 9.3125,8.46875 0.70885,2.7637 -1.8512,5.98826 1.66518,7.88393 4.95057,2.22157 6.6971,6.96487 9.58482,11.11607 5.58251,7.57634 15.70064,4.80688 23.17857,1.63393 3.68233,0.33099 7.97643,-2.92896 4.54018,-5.85268 -3.88097,-4.64754 -9.04658,-0.73339 -13.17857,1.51339 -6.32524,0.51899 -8.85007,-7.44939 -10.82143,-12.07589 -2.15658,-4.92247 -9.13609,-6.60428 -8.125,-12.875 -0.51099,-3.2149 -0.90928,-7.48519 3.28125,-8.15625 4.22835,-0.85987 3.63327,-6.4451 -0.46875,-6.77776 -3.57073,0.29488 -6.29338,-1.93088 -8.375,-4.65974 -1.81479,-1.50115 -4.11936,-2.80374 -6.5625,-2.53125 z"
       id="Incus"
       sodipodi:nodetypes="ccccccccccccccc"
       inkscape:label="#path48"
       inkscape:connector-curvature="0" />
    <path
       sodipodi:nodetypes="ccccccccccccccccccccccccccccccccccccccccccccccccccscssccccccccccccccccccccccccccccccccccccccccsscssccccccccccccccccccccccccccccccccscccccccccccccccccccccccccccccccccccccccccccccccccccccccsscccccccccsccccccccccccccccccccccccccccccccscccccccccccccccccccccccccccccccccccccccccccccccccccccccccccccccccccccccccccccccccccccccccccccccccccccccscccccccccccccccsccccccccccccccccccccccccccccccccccccccccccccccsccccccccccccccccccccccccccccccccccccccccccccc"
       id="path32"
       d="m 572.12033,167.10691 c -0.31754,1.19018 -0.0539,2.4153 -2.02847,1.68135 -5.89115,-1.02637 -12.14598,-0.9007 -17.6939,1.53319 -9.79372,3.83231 -17.1339,12.54289 -20.37994,22.42061 -1.92401,5.53264 -2.67098,11.63946 -1.31669,17.38485 1.38145,5.34721 5.06254,9.64249 9.00792,13.33052 4.79182,4.86931 9.08103,10.91252 9.40821,17.97704 -0.12943,1.06496 1.37383,0.72826 2.03403,1.11533 4.78207,1.23409 10.14658,2.76729 12.87645,7.25471 0.62253,0.42489 1.23411,4.49194 0.31911,2.97768 -2.56712,-4.20507 -7.20894,-6.83007 -12.07598,-7.23153 -12.15399,-1.08626 -24.45811,-0.15575 -36.54535,-2.06808 -6.44586,-1.03063 -13.45714,-3.73837 -16.70568,-9.79617 -1.64946,-2.50322 -0.6467,-6.03771 2.16415,-7.17287 4.85783,-2.33048 10.41678,-2.51066 15.71384,-2.58009 6.5714,0.19836 13.40048,1.33803 19.055,4.87212 2.83482,2.10376 5.85825,4.18159 7.98013,7.03615 -0.29191,2.41914 -2.1653,-0.87005 -3.61671,-1.54651 -5.03179,-4.38571 -11.39786,-7.12873 -18.03764,-7.7915 -5.70858,-0.5197 -11.59785,-0.86669 -17.20342,0.56807 -2.32674,0.44715 -5.04322,2.88495 -3.13212,5.2863 1.84023,2.75485 4.62886,4.86122 7.56549,6.34664 6.0853,2.47947 12.80704,2.28837 19.25734,2.63106 4.81531,0.0829 9.63723,0.31527 14.45093,0.12336 2.14668,-0.92325 -0.27309,-4.59453 -0.36579,-6.45609 -1.2937,-4.9498 -5.75995,-7.99086 -8.95768,-11.67336 -5.15852,-5.15339 -7.05064,-12.67834 -6.93081,-19.78793 0.17921,-9.15558 3.8021,-18.16854 10.09255,-24.83736 5.70973,-6.41721 13.31796,-11.70153 22.06156,-12.57458 4.34179,-0.49355 8.79349,-0.22264 13.00347,0.97709 z m 3.52001,13.22001 c 4.51445,4.20489 4.96469,11.05085 3.5734,16.72291 -1.08101,3.91088 -3.12276,7.48361 -4.03622,11.45589 -0.59377,2.15957 -1.10499,4.34074 -1.65717,6.51118 -3.37978,-6.28404 -2.68666,-13.79036 -5.38874,-20.29895 -2.00271,-5.18559 -7.32237,-8.09043 -12.57308,-8.92285 -2.50926,-0.53496 -5.12107,-0.48914 -7.63619,-0.83565 -0.66412,-0.53878 -2.14775,-0.63476 -1.2905,-1.69278 6.74551,-5.32913 15.91763,-7.60344 24.33711,-5.76208 1.79473,0.47095 3.3657,1.52785 4.67139,2.82233 z m -0.29998,19.15998 c 1.72677,-5.00425 2.72586,-11.02758 -0.36405,-15.72092 -2.14748,-3.43877 -6.35065,-4.89976 -10.26029,-4.63634 -3.74925,0.1557 -7.62425,0.93003 -10.88053,2.83328 2.02775,1.01021 4.72646,0.90522 6.83266,2.08921 4.58835,1.9052 8.22863,5.60227 10.41755,10.02603 1.30023,2.28295 2.13371,4.77957 2.81463,7.30125 0.49483,1.43198 1.18052,-1.62923 1.44003,-1.89251 z m 43.94995,116.26 c 1.73394,3.16023 2.61822,6.76439 2.22902,10.37001 -0.0675,1.18234 -0.38551,4.63701 -0.7373,5.62259 -0.23111,0.64748 -0.19262,-0.78316 -1.10663,-1.06365 -0.92704,0.10198 -1.20862,0.66284 -1.20435,0.0435 0.007,-0.96591 0.32456,-3.26703 0.30783,-4.27697 -0.0497,-2.99905 0.237,-6.30805 -1.56792,-8.95168 -3.68917,-6.4336 -11.82531,-9.72122 -18.99282,-8.26178 -4.52134,1.4705 -8.36421,5.61862 -8.28583,10.55981 -0.39146,3.79963 2.10555,7.46027 5.53365,8.93064 2.09165,1.07542 5.08782,-0.37549 6.79515,0.75266 -3.09253,2.62428 -8.00785,2.57043 -11.36923,0.48281 -3.47804,-2.40778 -5.55273,-6.77684 -4.69289,-10.99307 0.72762,-5.49999 4.60629,-10.31777 9.76677,-12.31724 5.7326,-2.61262 12.53427,-1.13952 17.53188,2.39349 2.49823,1.66013 4.50867,3.99935 5.79267,6.70884 z m -57.53998,-56.66998 c -1.04176,2.01905 -3.76635,2.87104 -5.88974,3.55096 -3.65912,1.12633 -7.55235,1.33889 -11.29314,0.47532 -5.7198,-1.02054 -10.54034,-4.48787 -15.94511,-6.37645 -4.90002,-1.2293 -10.02031,-1.04726 -14.98209,-1.94867 -9.23114,-1.46779 -18.57826,-6.12949 -23.49656,-14.36767 -1.7427,-2.93703 -2.79115,-6.34643 -2.39336,-9.7835 0.98,0.03 1.96,0.06 2.94,0.09 -0.24406,6.50224 4.52146,11.99448 9.83366,15.13117 6.31739,3.81459 13.70331,5.30296 20.9924,5.70687 4.3769,0.30915 8.97134,0.85835 12.59804,3.56436 4.79943,3.45647 10.58683,5.95578 16.61097,5.51687 3.64306,-0.0118 7.20607,-0.78851 10.74492,-1.55459 l 0.28001,-0.005 0,10e-6 z m -28.68994,-74.19367 c -1.21793,2.14818 -3.99755,2.9726 -5.68311,4.80172 -4.00199,3.52335 -5.14303,9.16299 -5.09165,14.27276 0.11103,4.98893 2.18999,9.74677 5.2337,13.63918 0.46659,1.41582 -2.87261,-0.42765 -3.84978,-0.0865 -8.51668,-0.77967 -17.39727,-0.1184 -25.31066,3.32223 -3.97792,1.72042 -7.63622,5.28472 -7.66856,9.88424 -0.98,-0.03 -1.96,-0.06 -2.94,-0.09 -0.2423,-4.74144 2.70945,-9.16273 6.77517,-11.41028 6.1236,-3.60947 13.24859,-5.07858 20.24487,-5.80987 2.71945,0.30093 6.5721,-0.0972 4.53732,-3.71346 -0.96748,-4.7348 -1.30912,-9.97377 1.17206,-14.3276 2.35765,-4.841 6.89633,-8.1904 11.68691,-10.38246 0.27287,-0.0524 0.61247,-0.274 0.89373,-0.1 z m 24.26996,93.98367 c 0.86971,2.69589 -0.91769,6.13939 -3.51391,6.88315 -0.79861,0.22879 -3.16394,0.17222 -4.37541,0.009 -0.37617,-0.0507 0.39891,-0.49191 0.61453,-1.13462 -0.14799,-0.8438 -1.29403,-1.97775 -0.85197,-1.91938 0.47979,0.0634 2.37104,0.16383 3.20424,-0.13697 3.09875,-1.11868 1.07588,-5.03937 -0.78358,-6.53487 -6.17287,-5.74173 -14.65302,-8.02667 -22.81192,-9.15937 -1.24098,-0.27075 -3.01225,0.18436 -4.17198,-0.29129 -0.49491,-0.59302 -3.00431,-0.95081 -2.24872,-1.55369 2.44925,-1.55802 5.60933,-4.25296 6.29695,-7.19785 0.27764,-1.21358 1.08798,-2.60789 1.02733,-0.37795 0.18838,2.2127 -0.8608,4.18884 -1.69757,6.15377 6.97875,0.99638 14.16392,1.94477 20.35557,5.56664 3.86693,2.16087 7.75544,5.22321 8.95644,9.69337 z m 213.15997,-9.63 c 3.02115,0.12892 -2.2946,2.71078 -3.46437,3.06131 -10.27518,3.89737 -21.04756,6.25248 -31.70133,8.85537 -13.94304,3.31632 -28.00015,6.70726 -41.08721,12.67903 -5.52699,2.70374 -11.42967,5.26389 -15.43468,10.13655 -3.23519,3.75889 -6.23906,7.89094 -7.97785,12.56711 -0.50897,3.50079 -0.0833,7.09244 -0.77942,10.58725 -2.12386,14.2732 -11.47394,27.24982 -24.43431,33.64348 -12.06611,6.20499 -26.16093,7.8519 -39.46235,5.5391 -13.50672,-2.18363 -26.50386,-6.92473 -38.65534,-13.14671 -3.12809,-1.70911 -6.79061,-0.6564 -10.15351,-1.30741 -6.57256,-0.68105 -13.06474,-2.60849 -18.6251,-6.24317 -3.46749,-2.20647 -6.90921,-4.59021 -9.39698,-7.92298 -3.51868,-4.29972 -6.09342,-9.43517 -7.40085,-14.83454 -1.17238,-6.92992 -0.70597,-14.37766 2.71144,-20.64522 1.11417,-2.35153 2.75499,-4.37533 4.46885,-6.30917 -2.12983,-0.18039 -4.2608,-0.46189 -6.27793,-1.17412 -2.81075,-0.77006 -3.80165,2.27078 -5.98878,2.98008 -3.06317,0.52363 -6.18124,0.84048 -9.14227,1.86403 -0.43114,-0.81858 -0.54653,-1.46114 -0.23518,-1.89856 2.41423,-1.77563 7.33618,-0.57132 7.67817,-4.1284 -1.70635,-2.3741 -5.17742,-3.40073 -7.71879,-1.70419 -2.15128,1.38244 -5.42095,2.76342 -8.08181,1.93331 -0.0834,-0.99362 0.63145,-1.37807 1.13623,-1.56062 0.67844,-0.24537 2.06597,0.0572 3.01283,-0.18029 2.42177,-1.12197 4.36132,-3.43543 7.21322,-3.52694 1.57787,-0.18287 1.68656,-1.83013 3.43011,-1.38518 -0.4583,2.1816 2.04149,3.3591 3.50627,4.89091 1.77468,2.08011 4.81983,-0.7533 7.35379,0.1317 2.6881,0.14248 5.53096,0.43736 7.87938,-1.14955 4.27021,-1.73207 8.33637,-4.16305 11.7094,-7.31425 0.6804,-0.42021 1.0958,-1.71731 1.97268,-1.48737 1.13025,0.4109 2.97496,0.25911 3.60415,0.93003 -0.0568,0.8898 -0.11362,1.7796 -0.17042,2.6694 -1.01625,0.008 -2.13396,-0.27896 -3.08874,-0.0931 -3.46485,3.24476 -7.27035,6.18583 -11.65457,8.08279 -2.68747,1.69152 -4.05718,4.74699 -5.73762,7.33098 -3.76046,6.29928 -4.27561,13.96567 -3.38477,21.09511 1.51272,9.77328 8.52852,18.03624 17.11095,22.59616 4.59549,2.42306 9.80698,3.51258 14.94672,3.9581 1.60198,0.25381 0.76172,-0.39318 -0.078,-1.03996 -2.4169,-1.49561 0.43459,-2.18951 1.80374,-1.20754 9.90873,3.72026 19.56909,8.13655 29.73245,11.16003 13.21783,4.04654 27.43159,6.12633 41.07852,3.0317 11.28974,-2.42435 22.53825,-7.83529 29.38949,-17.44917 7.04096,-9.57306 8.63659,-22.27497 6.08793,-33.69086 -3.47081,-15.51698 -13.79842,-29.11564 -27.10026,-37.63149 -7.04899,-4.59374 -15.31069,-7.0153 -23.60345,-8.03729 -7.73298,-0.56103 -15.72927,0.26263 -22.75452,3.73742 -8.90608,4.24711 -16.81342,11.94772 -19.07786,21.80547 -0.85335,3.96057 -0.58369,8.15178 0.61195,12.01169 2.86525,-4.34978 6.69148,-8.13185 11.15364,-10.82755 5.12637,-2.91323 11.00268,-4.41365 16.89904,-4.34028 3.5773,-0.0692 7.26072,-0.21868 10.64881,1.13117 7.87401,1.9557 14.86051,6.87872 19.85878,13.20051 2.85062,4.47287 4.80923,9.62121 4.81602,14.98225 0.49825,7.6988 -0.99273,16.16779 -6.79422,21.70127 -4.68587,4.53068 -11.26742,6.56219 -17.68686,6.62714 -3.00893,0.0821 -5.92734,0.78605 -8.85782,1.36174 -6.70255,0.71426 -13.67448,-0.16863 -19.65791,-3.41102 -6.03488,-2.7819 -10.02803,-8.57836 -12.03578,-14.75129 -1.91858,-5.61714 -2.29535,-11.71566 -1.18128,-17.53956 0.10185,-2.78955 -1.43483,-5.31714 -1.67108,-8.08374 -1.92159,-11.58406 3.18254,-23.60231 11.88617,-31.24655 1.52779,-1.72984 4.54124,-2.69688 4.6445,-5.30061 -1.09861,-6.05789 -4.05343,-11.65098 -7.97076,-16.36302 -2.17122,-2.83144 -4.70235,-5.3685 -6.89141,-8.17921 -1.107,-2.82275 -0.76882,-6.17264 -2.73972,-8.72547 -2.43409,-3.96379 -7.33116,-4.98025 -11.30913,-6.71393 -3.96661,-1.56099 -7.85542,-3.34229 -11.59346,-5.38349 -5.30062,-4.22174 -9.35543,-10.58316 -9.12627,-17.5572 0.0959,-7.0546 4.71568,-14.33827 10.04148,-18.80407 0.55014,0.47779 1.72981,1.00837 1.55227,1.63254 -2.05363,2.43547 -4.57781,5.25807 -5.62703,8.33309 -2.68871,5.50234 -2.37904,12.32727 1.02285,17.45389 3.05446,4.95391 8.08008,8.20861 13.25577,10.60888 1.75788,0.72282 3.90942,2.26099 5.50576,2.31623 -1.10556,-5.63011 -0.40452,-11.41084 -1.01045,-17.08245 -1.13066,-4.37066 -4.29155,-8.45293 -8.81213,-9.61545 -3.38316,-1.01468 -6.96289,-1.33973 -10.45681,-0.94955 -3.78905,0.42314 -3.89232,-2.44009 2.91636,-2.67816 4.04702,-0.14151 8.30984,0.14137 11.74167,2.50879 5.50046,3.55963 8.75374,10.17453 8.4783,16.6944 -0.10907,5.22365 0.0385,11.24621 4.1475,15.05978 3.16184,2.36179 5.35846,5.77581 6.50191,9.5292 0.21103,1.68924 2.23326,2.47594 1.69628,0.0694 0.39298,-4.44288 0.87753,-8.94671 2.22259,-13.2142 1.71296,-4.00841 5.09532,-7.03828 6.80403,-11.0672 3.42227,-7.91845 4.28287,-17.01963 2.20914,-25.40727 -2.2958,-8.42962 -9.69556,-15.74431 -18.04637,-18.42106 0.35,-0.97661 -0.5596,-2.71711 2.50759,-1.52173 7.0839,2.76081 13.46893,7.99236 16.14248,15.21355 3.818,9.74549 4.24689,20.89724 0.70517,30.78653 -1.38398,2.93965 -3.19633,5.66388 -5.18916,8.21324 -2.29506,4.16296 -3.75789,8.81749 -3.77314,13.60195 -0.11745,2.65147 -0.15644,5.3057 -0.2353,7.95851 3.46185,4.5117 7.07101,9.07211 8.707,14.62 0.95172,1.60388 0.69636,4.69096 2.26127,5.41961 4.21545,-1.08516 8.28418,-2.86966 12.68333,-3.1624 8.9411,-0.80305 18.20025,-0.0831 26.49735,3.56703 4.64606,1.96795 9.087,4.62483 14.17616,5.30404 12.89749,2.42036 26.10162,3.84129 39.20966,2.48282 21.55283,-2.09807 42.61362,-7.65729 63.06106,-14.63774 1.03722,-0.42166 5.16026,-1.6322 2.02107,-0.12407 -10.01119,4.44324 -20.28248,8.29801 -30.64211,11.84728 -19.98056,6.38025 -41.25392,8.80183 -62.14239,6.72401 -2.57873,-0.18983 -5.1404,-0.541 -7.70246,-0.88059 4.75755,4.90362 9.7027,9.74709 13.07701,15.75692 3.05398,4.99992 5.38239,10.41409 6.99813,16.04231 1.20747,1.57044 2.78453,-2.51288 4.06044,-3.36246 2.90147,-3.44405 6.82198,-5.72029 10.52603,-8.18041 10.06934,-5.85546 21.36161,-9.12225 32.44768,-12.45769 17.89128,-5.12057 35.98487,-9.63324 54.29873,-12.96865 z m -135.56,48.85999 c 0.23738,-4.01064 -0.545,-8.02954 -2.37781,-11.61547 -2.24614,-5.00953 -6.43455,-8.76714 -11.0165,-11.62283 -5.8915,-4.10054 -13.258,-5.46335 -20.3228,-5.28245 -9.27751,0.36615 -18.13433,5.84384 -22.82414,13.81353 -1.8565,3.45922 -3.45072,7.2559 -3.21047,11.26302 -0.25056,5.07809 0.59318,10.23778 2.99976,14.7579 2.72945,6.181 8.49275,10.79586 15.07717,12.24282 4.8309,0.98329 10.01959,1.01996 14.71132,-0.63275 4.87966,-1.6429 9.39328,-6.00551 10.58723,-11.06627 0.86945,0.32049 2.93711,0.35207 2.14875,2.0725 -1.14257,2.49344 -1.85138,4.88741 -3.9935,7.12 2.6697,0.63441 5.6834,-0.42875 8.13758,-1.60392 5.7668,-3.06532 9.20962,-9.43844 9.9786,-15.76873 0.0907,-1.22347 0.0964,-2.45119 0.10481,-3.67735 z m -12.91998,126.41 c 3.37887,5.7058 6.46811,11.6349 8.75599,17.86641 0.28431,2.35284 -1.88143,-1.76292 -2.27358,-2.43065 -3.59412,-6.25686 -7.26259,-12.47628 -11.0296,-18.62864 -7.57639,-10.78772 -16.01329,-20.95607 -24.81415,-30.7625 -9.02743,-10.27475 -19.8192,-18.74534 -30.3524,-27.39208 -5.8278,-4.86931 -12.09406,-9.16091 -18.13962,-13.74665 -1.89648,-1.31613 -3.80123,-2.81895 -5.85996,-3.807 -11.06596,0.61345 -22.34938,1.80623 -33.24493,-0.84527 -5.43154,-1.25691 -10.18179,-4.26373 -14.58075,-7.57363 -2.04566,1.67333 -4.50317,2.67921 -6.90876,3.68376 1.6103,2.00256 4.58202,3.16175 6.94403,4.44072 10.43405,5.01212 22.17534,6.44662 33.63743,6.37186 6.25673,0.0826 12.89418,-0.21969 18.55233,2.93438 2.5156,1.37109 5.30518,2.21392 7.50764,4.11098 8.49066,6.02627 15.52456,13.75879 22.95838,20.97966 8.24095,8.32843 16.64788,16.50912 24.52029,25.19071 7.17471,8.4386 13.91925,17.33501 19.26083,27.06183 1.06638,2.1503 2.53024,4.77317 2.15682,7.06611 -4.47235,-6.63835 -9.25113,-13.07721 -14.05643,-19.48114 -6.1616,-8.0742 -12.47979,-16.09413 -19.97787,-22.98676 -9.52907,-8.98989 -18.86838,-18.17719 -28.29713,-27.27106 -5.50516,-5.1677 -11.47465,-10.20316 -18.64585,-12.83757 -6.41451,-2.099 -13.23322,-1.04503 -19.8439,-1.60624 -11.10954,-0.44965 -22.52022,-1.83712 -32.48022,-7.11615 -2.74054,-1.38346 -5.12491,-3.32959 -7.42321,-5.33264 -2.51506,-0.46289 -5.1927,0.75738 -7.80483,0.65592 -3.79072,0.35718 -7.60288,0.35887 -11.39057,-0.0144 0.16134,2.4723 -0.13497,5.0843 -1.81731,7.03782 -3.78742,4.81625 -9.72195,7.03398 -15.08351,9.59326 -3.44693,1.57149 -7.10047,2.63306 -10.71631,3.71298 -5.87877,0.89321 -11.72399,2.07251 -17.67918,2.37207 -17.84803,1.43765 -35.8383,-0.33534 -53.28774,-4.19514 -8.40774,-1.87082 -17.16933,-1.96906 -25.65239,-0.53784 -9.23266,1.22581 -18.58909,3.52558 -27.9257,1.96781 -6.17247,-1.05224 -11.65311,-5.65135 -13.69258,-11.57072 -0.87099,-2.01452 -0.10033,-4.38115 -0.62121,-6.32461 -11.36365,3.33407 -22.49828,7.59769 -34.11906,10.02687 -8.22122,1.56645 -16.67898,1.18008 -24.96417,0.3833 -10.44725,-1.29884 -20.52581,-4.62937 -30.32198,-8.37595 -6.13104,-2.52096 -12.3508,-5.01374 -17.91885,-8.65986 4.47114,0.89261 8.68302,2.76357 13.01957,4.13605 14.25638,4.89213 29.08932,8.56741 44.21021,9.07434 15.07821,0.28485 29.355,-5.1615 43.58779,-9.39056 11.94765,-3.60148 23.79536,-7.54248 35.8119,-10.91047 16.57177,-4.34544 33.52684,-7.6914 50.70443,-8.06222 12.47501,-0.33013 25.10687,0.16711 37.22425,3.40264 13.80137,3.39547 27.33513,7.90894 41.31722,10.54371 10.26707,1.55391 20.98301,2.21198 31.06373,-0.78223 4.32024,-0.7625 7.15151,-4.60325 8.58833,-8.47605 1.33466,-3.91115 0.93442,-8.18417 0.41535,-12.21195 -2.17691,-10.73161 -7.28949,-20.68905 -13.5017,-29.62643 -4.59313,-6.2899 -10.18212,-11.79895 -15.97815,-16.97397 -10.76678,-8.82877 -24.59709,-14.59187 -38.69031,-13.67169 -11.68933,0.86842 -23.23898,2.9882 -34.85518,4.48952 -23.97484,3.28655 -48.14721,6.11954 -72.38943,5.12831 -20.60687,-0.6857 -41.14114,-3.5989 -61.08856,-8.83406 -13.92067,-3.50019 -27.63807,-7.7838 -41.08004,-12.81731 -7.98631,-2.89104 -16.12599,-5.32042 -24.32863,-7.51214 -1.35475,-0.37856 -2.69008,-0.82097 -4.03078,-1.24548 10.37734,0.39885 20.62279,2.46062 30.51939,5.55605 5.91442,1.76564 11.68626,3.99685 17.63061,5.65395 -1.00218,-2.80228 -2.62337,-5.44771 -2.866,-8.49172 -0.8344,-7.93737 1.14301,-15.8052 2.48379,-23.5794 2.81496,-15.2591 5.43742,-30.70548 4.87273,-46.28313 -0.16147,-9.41835 -2.51206,-18.60852 -4.25677,-27.81575 -3.68081,-17.47664 -8.0311,-34.80285 -12.02359,-52.20949 -4.5785,-19.865238 -9.51833,-39.643792 -14.30772,-59.458344 -1.105,-5.058009 -2.53571,-10.0745 -3.14413,-15.222796 0.44317,-2.678353 2.3723,1.569675 2.86232,2.616658 4.04139,9.481456 6.63176,19.498724 9.46616,29.385984 5.58383,20.168494 10.12536,40.609188 15.82178,60.747688 3.18605,11.93634 6.08317,23.96962 7.87992,36.20269 1.79806,10.16125 3.46829,20.42155 3.17403,30.7781 -0.0231,18.80334 -4.08641,37.25194 -6.82139,55.77023 -0.58906,4.84604 -1.39672,10.37573 1.79688,14.54541 2.35869,3.17146 6.47368,4.08343 9.93928,5.53518 14.04975,4.77379 28.78364,7.13831 43.46378,8.99229 15.53178,2.07103 31.2368,1.99809 46.87072,1.71445 10.79417,-0.48434 21.52222,-1.88315 32.26511,-2.98281 13.94065,-1.47117 27.81029,-3.51416 41.71473,-5.27447 7.044,-0.74298 14.24547,-0.84475 21.22788,0.4762 2.95391,0.4094 5.64656,2.06294 8.65118,2.08052 2.85941,-0.42256 2.51741,-4.21384 1.57964,-6.17856 -1.53932,-3.78478 -4.12032,-7.03505 -5.6974,-10.81122 -2.46077,-5.40754 -4.98957,-10.87566 -6.29001,-16.69835 -0.70893,-3.60109 1.60411,-6.97882 4.55808,-8.80936 5.64247,-3.47427 12.28838,-4.81291 18.74942,-5.88141 7.73206,-1.12636 15.92636,-1.35175 23.28465,1.6308 3.5452,1.54388 6.33657,4.86432 6.62484,8.80811 0.38304,3.75427 0.72152,7.96761 3.804,10.60188 4.41194,4.2184 10.39882,6.34934 14.72964,10.64911 2.70548,2.94778 2.59718,7.5475 5.71761,10.2267 2.85933,2.71752 7.13868,1.39935 10.12724,-0.3497 1.54529,-0.63146 2.97157,-2.84443 4.41718,-1.05213 1.25791,0.51538 0.98563,1.06216 -0.0855,1.62533 -1.76142,1.11524 -3.14657,2.6077 -3.53527,4.67864 -2.06608,3.03318 -5.30449,5.18058 -7.04132,8.43415 -0.88168,2.30297 0.30552,4.54221 0.56809,6.7843 -0.98421,0.23545 -1.67153,1.85914 -2.06929,1.35087 -0.23877,-0.3051 -0.16361,-2.4846 -0.2317,-3.12165 -1.53382,-2.66181 -1.79027,-6.41804 0.64213,-8.65101 1.05226,-1.56629 3.67706,-3.04953 3.89452,-4.55399 -2.36607,0.38017 -4.80757,0.91652 -7.17964,0.18125 -2.4374,-0.44073 -4.43007,-2.22351 -4.92234,-4.68896 -1.21107,-3.92468 -2.92646,-7.80803 -5.99985,-10.64456 -2.81057,-3.04742 -6.40096,-5.14453 -9.78794,-7.45373 -4.36588,-3.1616 -6.07218,-8.50343 -7.15899,-13.5415 -0.26237,-2.52354 -1.76013,-4.86663 -4.20063,-5.77047 -3.99138,-1.32888 -8.27992,-1.39723 -12.44189,-1.74397 -3.83886,-0.0299 -7.7695,-0.20672 -11.53598,0.60194 0.39639,2.55845 2.02838,4.85574 3.19341,7.1665 2.45948,4.52481 6.32109,8.07888 10.29658,11.26349 2.62912,-1.38352 5.6915,-2.46158 8.64445,-1.44703 3.69621,0.91211 4.5586,5.86396 8.48308,6.3304 5.61044,0.19527 3.8246,2.44889 -0.13313,2.07428 -3.08695,-0.29219 -4.68961,-2.9841 -6.84028,-4.69458 -2.04317,-1.84379 -5.44807,-2.65172 -7.66267,-0.65556 0.59713,1.8857 3.41198,3.83658 3.90756,6.3425 0.83288,3.70534 0.4715,7.86401 -1.87394,10.97814 -1.43215,1.29536 -2.23291,3.92683 0.50892,4.03976 2.8933,0.64247 5.99538,2.01595 7.10542,4.99164 2.03591,2.55276 -1.83155,5.8319 0.77925,7.73546 2.63715,2.09162 6.0022,3.58275 7.43135,6.855 2.15977,4.19526 5.64557,8.39899 10.66861,8.88791 3.20564,0.37653 7.6001,-0.81175 10.6521,-1.76362 0.56077,1.25921 1.34337,0.92146 -0.2716,2.23689 -3.36453,1.21371 -8.95477,1.90379 -12.46668,1.52213 -2.5734,-0.94848 -5.33836,-2.03685 -7.13206,-4.21427 -1.94258,-2.05676 -3.12401,-4.65812 -4.75537,-6.92404 -2.12843,-1.89073 -4.48307,-3.54349 -6.47467,-5.60452 -1.85658,-1.86747 -4.378,-2.88402 -6.92239,-3.36205 -3.33412,0.12855 -3.5508,4.51062 -1.50769,6.38883 2.11132,2.89263 6.14402,4.29009 7.15071,7.94657 -0.32835,2.83027 2.39805,4.20596 3.76102,6.3067 6.93799,9.3858 12.90766,19.81721 15.49646,31.29431 1.19093,6.32612 1.998,13.24984 -0.79876,19.27937 -0.4765,0.97678 -0.98644,1.93686 -1.47867,2.90578 3.53801,3.54842 7.94376,6.33105 12.89285,7.36581 9.07036,1.80971 18.37297,0.81216 27.49525,0.0209 3.16638,-0.0758 6.78674,-0.41477 9.32905,1.87469 6.03242,4.29093 11.63309,9.15798 17.6295,13.48719 9.1026,7.62704 18.1461,15.34322 26.79044,23.48924 11.24908,11.10753 21.52853,23.21629 30.63598,36.13904 1.59037,2.30116 2.82292,4.82347 4.35593,7.16313 z M 473.00033,278.3769 c 1.39527,0.8385 4.26142,1.31279 3.2824,-1.29409 -0.62877,-3.35059 -4.35736,-3.58521 -7.06386,-3.84851 -2.31268,-0.45899 -3.47972,-3.18058 -2.42202,-5.23382 1.36766,-2.71489 4.05074,-4.8326 4.15348,-8.12076 0.35531,-3.17954 -1.96186,-5.8536 -3.74887,-8.22652 -2.98024,-2.92762 -6.5368,-5.27592 -9.01774,-8.70322 -2.46833,-2.85362 -4.05059,-6.32498 -6.35414,-9.28745 -1.70845,0.6525 0.5695,4.11947 0.47975,5.82438 -0.29201,2.79751 -3.37248,3.03714 -4.79854,4.92794 -2.05351,2.36193 -1.84389,5.85969 -0.30719,8.43453 1.62698,3.54274 4.73397,6.4486 5.43085,10.38253 0.78093,3.38325 -5.56706,2.27996 -4.08146,5.22391 2.16183,1.14253 5.55865,-0.77747 7.05389,1.89773 2.11544,2.16994 0.48567,5.08028 -0.41155,7.37461 -0.56115,2.63688 2.97262,3.58757 4.54156,5.05157 1.6699,0.58874 4.8989,5.10028 5.40505,1.58946 0.0934,-3.03946 2.04215,-6.52627 5.42353,-6.57324 0.84657,-0.014 1.64903,0.30593 2.43486,0.58095 z m -18.06,85.33002 c -0.59355,-1.9979 -3.78145,-1.01844 -5.42988,-1.76221 -16.17503,-3.02598 -31.66021,-8.88753 -47.80059,-12.05642 -10.42587,-1.91501 -21.08859,-1.68753 -31.63671,-1.30751 -19.06543,0.90196 -37.77744,5.16687 -56.14096,10.13905 -5.94044,1.92263 -12.05873,3.34644 -17.87186,5.62708 -0.72376,2.7444 0.52314,5.69717 1.88982,8.07014 1.88307,3.74269 6.35868,4.62298 10.15136,4.89512 7.60685,0.21937 15.12023,-1.3362 22.62442,-2.37 8.68212,-1.37291 17.57368,-2.32832 26.30257,-0.77171 11.37315,2.06823 22.77327,4.19981 34.33542,4.87068 12.54767,0.77375 25.23526,0.29214 37.55804,-2.33048 5.08435,-0.63444 9.88992,-2.48353 14.6638,-4.25641 3.74987,-1.64734 7.81726,-3.25685 10.51289,-6.47455 0.48378,-0.65684 0.8452,-1.44292 0.84168,-2.27278 z m -0.86001,-90.25 c 1.35747,-3.02554 -3.63121,-2.35882 -5.17451,-1.42798 -0.80508,1.09842 -1.65534,2.26753 -2.62548,3.28797 1.81957,0.86688 3.63924,1.73355 5.45901,2.6 0.74166,-1.50641 1.46051,-3.02779 2.34098,-4.45999 z m -4.90998,-9.56 c 0.21108,-2.61624 -1.6896,-4.82638 -2.90094,-7.00411 -2.26153,-3.55996 -3.90894,-8.35027 -1.67157,-12.2984 1.19511,-2.16044 3.65631,-3.16545 5.031,-5.12343 0.612,-2.63088 -1.5391,-4.88723 -2.08564,-7.35549 -1.24011,-3.13661 -5.0462,0.53204 -7.13721,1.09151 -2.64252,1.27754 -5.21812,4.05585 -4.33264,7.20735 1.33171,8.14177 5.84399,15.22415 9.99163,22.18489 0.62289,1.06682 1.91089,2.85643 3.10537,1.29768 z m 51.28,28.29999 c 0.11011,2.06099 -1.25234,1.83352 -2.74186,0.80855 -3.69395,-1.57678 -5.03936,-5.57469 -6.38317,-9.01011 -1.21682,-3.30061 -3.70034,-5.86376 -6.44052,-7.9672 -2.96304,-2.17998 -2.75454,-6.19515 -3.08446,-9.47124 -0.13126,-2.56758 -0.46717,-6.03998 2.37672,-7.31445 1.4837,-0.88298 5.82521,-2.09043 3.14333,-4.13235 -1.38771,-0.71353 -4.43749,0.0334 -3.64487,-2.18159 0.90429,-1.21697 4.72415,0.15308 6.01737,1.08564 2.66548,1.88227 0.91276,5.66995 -1.75967,6.44379 -1.24569,0.61091 -2.50857,1.18601 -3.76287,1.77897 0.35209,3.38094 0.46638,6.87381 1.68983,10.07091 1.9297,2.7923 5.93079,3.77789 6.89897,7.32343 1.35799,4.08898 2.11488,8.87373 5.79254,11.63237 0.5721,0.41414 1.18229,0.82871 1.89866,0.93328 z"
       inkscape:connector-curvature="0" />
    <path
       style="fill:#4e9a06"
       d="m 444.06283,291.88316 c -8.94978,0.4384 -11.58659,11.325 -9.55435,18.61139 3.46764,13.86895 12.25586,27.24771 24.9606,34.26361 5.10488,2.33906 13.0536,5.29985 17.5,0.4375 3.44229,-12.87994 -4.12092,-25.39597 -9.875,-36.375 -4.99753,-8.03469 -12.69405,-17.18215 -23.03125,-16.9375 z"
       id="Tympanic_Membrane"
       inkscape:label="#path56"
       inkscape:connector-curvature="0" />
    <path
       sodipodi:nodetypes="cccccccccccsccssccccssccscccscsccccsccccccccccccccsscscsccccsscscscccsssccscscccccssscccccscccccccccccccccccssscscccssccccccsssscscccscscscccccsccsscccccccccscccccsscccscccccccccccccccccsccscccsccccsccccccccccccccscccccccsccscccccccsssccccsscscc"
       d="m 481.83033,339.16691 c 0.01,4.59 -0.05,5.02 -1.03,7.01 -3.37,6.86 -11.34,9.15 -23.79,6.85 -5.45,-1 -10.399,-2.4 -20.51,-5.78 -13.2,-4.42 -21.78,-6.27 -36.87,-7.95 -8.11,-0.9 -25.07,-1.39 -34.979,-1 -21.23,0.84 -41.86,4.63 -63.811,11.73 -19.36,6.26 -36.49,10.36 -48.94,11.7 -6.38,0.69 -18.56,0.8 -23.2,0.21 -7.94,-1 -12.75,-2.19 -24.7,-6.11 -10.76,-3.54 -13.61,-4.77 -28.71,-12.45 -7.07,-3.6 -13.69,-6.82 -14.71,-7.16 -2.34,-0.78 -6.98,-0.81 -9.52,-0.06 -4.09,1.22 -7.4,4.58 -8.61,8.74 -1.68,5.76 0.22,11.58 7.28,22.35 3.56,5.43 5.08,8.86 5.77,13.02 0.23,1.4 0.56,7.28 0.73,13.07 0.34,11.67 0.53,12.85 2.98,18.68 3.02,7.2 3.4,12.05 1.75,22.33 -3.57,22.3 -2.22,34.89 3.94,36.729 3.13,0.94 6.14,-0.89 10.37,-6.3 1.37,-1.75 2.55,-3.13 2.62,-3.05 0.08,0.07 0.63,2.33 1.24,5 3.91,17.36 6.52,37.52 7.8,60.36 0.64,11.33 0.12,30.52 -0.93,34.439 -0.37,1.38 -1.39,1.66 -1.68,0.47 -0.38,-1.619 -0.64,-4.239 -1.2,-12.34 -0.74,-10.54 -0.77,-10.88 -2.3,-25.199 -1.51,-14.221 -4.93,-41.33 -5.27,-41.721 -0.07,-0.09 -0.78,0.53 -1.59,1.36 -6.41,6.6 -16.34,10.29 -27.73,10.29 -9.66,0 -17.09,-2.5 -24.43,-8.23 -13.27,-10.34 -22.470001,-27.14 -28.580001,-52.16 -2.42,-9.89 -5.31,-25.31 -6.57,-35.01 -0.21,-1.66 -0.98,-7.58 -1.71,-13.17 -0.72,-5.59 -1.68,-11.34 -2.12,-12.79 -0.44,-1.45 -3.5,-9.07 -6.81,-16.93 -11.58,-27.55 -15.26,-38.39 -17.55,-51.73 -1.45,-8.39 -1.74,-12.09 -1.72,-21.82 0.02,-11.88 0.68,-18.3 3.44,-33.55 0.22,-1.2 -0.86,-17.98 -1.57,-24.52 -0.27,-2.52 -1.35,-10.5 -2.4,-17.74 -5.7,-39.53 -6.46,-46.79 -6.26,-60.57 0.21,-15.12 2.07,-25.69 6.52,-37.06 4.34,-11.060003 13.07,-22.510003 18.87,-24.760003 0.52,-0.2 2.11,-1.06 3.55,-1.9 8.64,-5.08 17.54,-7.34 28.800001,-7.33 9.69,0.02 16.62,1.49 24.27,5.17 9.74,4.7 16.61,11.98 22.55,23.920003 1.28,2.59 2.89,6.1 3.57,7.8 1.36,3.44 2.28,4.63 2.28,2.98 0,-2.25 -7.22,-48.350003 -7.7,-49.120003 -0.24,-0.38 -2.4,-14.66 -3.21,-21.17 -0.88,-7.15 -0.98,-10.58 -0.28,-10.38 0.74,0.22 2.77,4.57 4.44,9.52 2.97,8.77 9.39,36.32 9.39,40.31 0,0.68 0.42,3.65 0.93,6.61 4.21,24.260003 6.24,46.230003 5.02,54.280003 -0.25,1.66 -0.43,3.8 -0.41,4.76 0.08,3.21 1.87,6.22 4.84,8.11 0.7,0.45 0.7,0.47 -0.02,1.04 -0.4,0.32 -1.46,0.58 -2.39,0.58 -4,0 -6.22,-2.49 -9.24,-10.35 -1.96,-5.12 -3.12,-8.94 -4.2,-13.84 -1.7,-7.71 -4.05,-12.45 -8.03,-16.1 -4.66,-4.29 -9.91,-5.09 -15.81,-2.4 -8.18,3.73 -9.91,12.49 -6.05,30.65 0.59,2.79 1.49,6.85 2,9.03 5.19,22.35 6.62,30.02 9.67,52.1 2.27,16.43 3.41,23.74 3.98,25.61 1.57,5.15 4.77,8.56 14.44,15.38 2.58,1.82 4.87,3.52 5.08,3.76 0.2,0.25 1.56,1.45 3.01,2.67 1.45,1.21 4.53,3.94 6.85,6.06 2.73,2.47 5.07,4.25 6.59,4.99 3.15,1.54 8.34,2.85 14.96,3.78 10.03,1.42 11.86,1.92 25.4,6.98 11.56,4.32 20.94,7.2 29.98,9.19 21.67,4.79 49.11,7.59 74.419,7.58 19.94,0 31.761,-1.16 57.74,-5.68 17.55,-3.05 25.021,-3.97 36.5,-4.49 18.58,-0.85 30.9,2.37 41.37,10.82 3.16,2.56 6.7,6.05 7.4,7.3 0.279,0.51 1.59,2.52 2.899,4.46 4.2,6.23 8.73,16.06 10.86,23.6 0.882,3.122 1.032,4.372 1.042,8.542 z m -8.37,6.19 c 2.07,-0.58 2.36,-1.38 2.35,-6.57 -0.02,-6.64 -1.55,-11.46 -7.43,-23.39 -3.979,-8.07 -7.939,-13.34 -12.93,-17.2 -3.04,-2.36 -4.54,-3.17 -7.09,-3.85 -9.74,-2.6 -14.771,5.53 -11.311,18.27 2.49,9.18 10.5,21.23 17.92,26.94 6.221,4.8 13.681,7.14 18.491,5.8 z m -11.02,3.61 2.85,0.23 -2.83,-1.27 c -9.15,-4.12 -16.52,-11.56 -22.7,-22.94 -2.22,-4.09 -4.859,-10.59 -5.92,-14.6 -1.189,-4.48 -1.22,-10.72 -0.07,-13.23 0.99,-2.18 3.16,-4.63 5.29,-5.99 l 1.62,-1.03 -2.56,-0.58 c -8.47,-1.92 -15.25,-1.76 -36.04,0.88 -55.86,7.1 -63.23,7.79 -86.91,8.13 -23.39,0.35 -33.15,-0.24 -53.79,-3.25 -18.02,-2.62 -30.08,-5.64 -45.34,-11.35 -11.27,-4.22 -13.38,-4.82 -21.07,-5.94 -3,-0.43 -7.57,-1.28 -10.15,-1.87 -2.59,-0.59 -6.53,-1.27 -8.75,-1.5 -5.24,-0.54 -15.07,-0.44 -18.91,0.2 -9.43,1.57 -15.39,2.41 -18.05,2.55 -3.52,0.19 -7.33,-0.27 -8.77,-1.05 -0.97,-0.53 -0.88,-0.55 1.86,-0.57 4.36,-0.02 11.24,-1.34 16.69,-3.2 5.67,-1.94 10.27,-3.08 13.73,-3.39 5.12,-0.47 5.59,-0.58 5.84,-1.35 0.14,-0.44 -0.08,-1.24 -0.54,-1.99 -0.82,-1.33 -5.23,-5.48 -7.75,-7.3 -0.82,-0.6 -2.86,-2.24 -4.51,-3.65 -4.58,-3.89 -5.11,-3.99 -6.8,-1.25 -1.37,2.21 -3.47,4.36 -5.05,5.18 -3.22,1.66 -5.17,1.96 -14.67,2.24 -9.96,0.3 -11.28,0.55 -14.72,2.83 -1.67,1.11 -1.84,1.15 -1.84,0.42 0,-0.29 0.76,-1.2 1.69,-2.02 2.46,-2.16 5.45,-2.98 13.36,-3.66 10.81,-0.93 14.26,-2.46 15.76,-7 0.61,-1.85 0.02,-3.46 -2.94,-8.03 -2.76,-4.25 -3.58,-6.01 -4.33,-9.26 -0.67,-2.91 -2.61,-17.1 -3.24,-23.76 l -0.46,-4.8 -2.55,0 c -6.43,0 -13.2,2.29 -19.33,6.55 -3.77,2.62 -10.4,9.03 -14.050001,13.6 -1.67,2.08 -3.3,4.01 -3.64,4.29 -1.77,1.47 -0.73,-1.75 2.08,-6.44 1.03,-1.71 2,-3.2 2.15,-3.31 0.15,-0.11 1.22,-1.39 2.38,-2.84 8.280001,-10.34 18.590001,-16.82 29.130001,-18.29 l 3.24,-0.45 -0.24,-2.67 c -0.13,-1.47 -0.49,-4.61 -0.78,-6.98 -0.3,-2.37 -0.55,-4.55 -0.55,-4.84 0,-0.74 -3.53,-0.32 -7.84,0.92 -6.87,1.98 -13.24,5.75 -18.7,11.05 -1.35,1.3 -2.54,2.27 -2.67,2.15 -0.44,-0.44 3.22,-5.02 6.69,-8.37 3.79,-3.66 7.82,-6.58 11.89,-8.6 2.83,-1.4 4.18,-1.86 7.31,-2.48 l 2.13,-0.42 -1.26,-4.77 c -1.57,-5.93 -6.16,-20.06 -8.15,-25.1 -2.07,-5.22 -6.37,-13.69 -8.83,-17.4 l -2.06,-3.1 -2.7,0.01 c -5.91,0.01 -10.460001,1.84 -14.380001,5.79 -2.62,2.65 -4.06,4.92 -4.69,7.39 -0.18,0.71 -0.59,2.23 -0.9,3.36 -0.95,3.4 -1.35,8.39 -1.36,16.75 -0.01,16.3 -2.35,33.61 -6.98,51.62 -4.789746,15.34012 -9.972362,30.43341 -13.89,46.11 -6.33,30.73 -0.16,59.59 20.36,95.18 1.52,2.65 2.77,4.94 2.77,5.09 0,0.16 0.58,1.38 1.29,2.72 0.83,1.57 1.64,4.03 2.29,6.95 1.88,8.47 5.79,19.2 9.650001,26.49 5.01,9.451 11.99,17.88 19.39,23.411 1.28,0.96 2.25,1.819 2.15,1.92 -0.37,0.37 -3.8,-0.591 -6.37,-1.771 -7.34,-3.39 -14.93,-11.28 -21.490001,-22.34 -3.3,-5.54 -3.2,-5.42 -2.94,-3.45 0.4,3.18 3.6,21.24 4.73,26.71 5.470001,26.561 12.760001,43.28 23.640001,54.21 4.41,4.42 7.48,6.67 11.23,8.221 6.21,2.55 14.38,3.579 20.95,2.64 7.85,-1.12 13.82,-4.14 17.4,-8.811 1.95,-2.539 1.96,-2.939 0.03,-2.01 -0.94,0.46 -2.7,0.87 -4.16,0.98 -2.19,0.149 -2.79,0.05 -4.58,-0.83 -3.85,-1.88 -5.44,-4.75 -6.26,-11.311 -0.6,-4.739 -0.29,-15.08 0.78,-26.34 0.9,-9.439 1.04,-16.609 0.4,-20.06 -0.25,-1.3 -0.98,-4.01 -1.62,-6.021 -1.14,-3.54 -1.18,-3.859 -1.26,-11.36 -0.04,-4.24 -0.27,-8.86 -0.51,-10.26 -0.38,-2.3 -2.07,-8.23 -2.58,-9.08 -0.07,-0.12 -0.28,0.12 -0.51,0.58 l -2.67,-0.5 c 0.72,-1.09 1.19,-2.26 1.21,-3.26 0,-0.49 -1.34,-2.94 -2.99,-5.45 -3.63,-5.56 -6.17,-10.81 -7.22,-14.96 -0.64,-2.52 -0.75,-3.89 -0.62,-7.27 0.2,-4.77 1.14,-7.56 4.05,-11.88 2.21,-3.28 8.06,-9.07 12.43,-12.3 5.27,-3.89 8.34,-6.88 10.65,-10.4 2.81,-4.27 3.93,-6.56 4.6,-9.47 0.75,-3.22 0.75,-10.18 0,-13.75 -0.32,-1.54 -0.58,-2.94 -0.58,-3.12 0,-0.7 1.23,0.74 2.1,2.46 1.62,3.19 2.13,6.34 1.94,11.79 -0.34,9.22 -2.62,13.68 -11.86,23.13 l -3.48,3.58 2.51,0.29 c 4.42,0.5 10,2.68 20.87,8.16 13.28,6.69 16.11,7.88 27.99,11.78 16.27,5.34 21.14,6.31 32.92,6.49 8.94,0.14 14.6,-0.32 23.32,-1.88 10.55,-1.9 21.61,-4.75 34.8,-8.99 27.39,-8.8 49.03,-12.27 76.439,-12.28 23.551,0 42.101,2.73 60.131,8.84 12.39,4.212 22.11,6.762 27.25,7.172 z m -313.47,-237.76 c 0.89,0.52 1.61,0.76 1.61,0.54 0,-0.71 -2.67,-5.74 -4.68,-8.84 -7.61,-11.700003 -18.57,-18.790003 -32.94,-21.330003 -1.68,-0.29 -5.49,-0.48 -9.41,-0.47 -9.200001,0.04 -13.330001,0.95 -21.250001,4.68 -1.24,0.58 -3.28,1.51 -4.52,2.05 -6.57,2.9 -14.99,17.460003 -18.8,32.530003 -2.56,10.15 -3.76,21.35 -3.46,32.38 0.2,7.29 0.86,14.56 1.76,19.19 0.22,1.14 0.98,5.54 1.69,9.78 1.63,9.79 2.9,18.76 6.22,44.21 0.41,3.1 0.75,5.73 0.77,5.83 0.05,0.28 1.69,-3.33 4.02,-8.84 1.14,-2.69 2.88,-7.24 3.86,-10.12 2.759898,-5.77121 4.053419,-11.85663 5.26,-18.2 1.65,-9.53 2.15,-17.48 2.43,-38.46 0.12,-8.89 0.27,-11.3 0.89,-14.11 1.55,-7.13 4.21,-12.96 7.29,-15.99 2.07,-2.04 5.65,-4.02 7.92,-4.38 2.34,-0.38 1.05,-1 -2.44,-1.18 -2.47,-0.13 -3.59,0 -5.42,0.62 -4.22,1.43 -9.546953,6.47398 -12.75,9.97 -3.456795,3.77297 -4.893723,9.72645 -5.44,15.5 -0.2,2.5 -0.46,4.83 -0.6,5.18 -0.65,1.71 -1.44,-0.16 -2.08,-4.95 -1.471639,-10.54435 1.592539,-20.4433 8.96,-26.22 4.38,-3.57 9.51,-5.54 14.36,-5.52 9.850001,0.04 17.800001,6.55 26.950001,22.07 0.26,0.44 0.38,-0.98 0.4,-4.76 0.02,-4.37 0.19,-5.96 0.87,-8.4 1.67,-5.99 4.53,-9.46 10.05,-12.17 6.55,-3.22 13.61,-3.44 18.48,-0.59 z"
       id="path52"
       inkscape:connector-curvature="0" />
    <path
       d="m 145.98033,380.28691 2.67,0.5 c -0.12,0.23 -0.25,0.51 -0.38,0.83 -1.12,2.86 -2.51,4.74 -4.38,5.93 -2.6,1.64 -4.04,1.95 -8.41,1.79 -4.76,-0.18 -7.06,-1.14 -10.27,-4.3 -2.82,-2.77 -5.54,-8.36 -6.81,-13.98 -0.94,-4.18 -2.06,-14.19 -2.06,-18.43 0,-3.98 -0.59,-5.57 -2.97,-7.97 -1.16,-1.17 -4.21,-3.56 -6.79,-5.31 -5.67,-3.86 -10.740001,-8.75 -13.680001,-13.2 -2.22,-3.37 -5.29,-9.48 -5.73,-11.43 -0.1,-0.47 -0.46,-1.82 -0.88,-3.35 l 2.66,-0.73 c 0.33,1.11 0.69,2.23 1.08,3.32 3.45,9.77 7.47,14.5 17.450001,20.51 3.26,1.96 6.94,4.22 8.16,5.02 5.46,3.55 6.33,5.64 6.89,16.61 0.63,12.11 1.84,17.73 4.74,22.01 1.86,2.73 2.75,3.52 5.4,4.73 1.88,0.86 2.7,1.01 5.45,0.99 1.79,-0.01 3.68,-0.19 4.2,-0.39 1.36,-0.52 2.72,-1.76 3.66,-3.15 z"
       id="path60"
       inkscape:connector-curvature="0" />
    <path
       d="m 145.60033,411.95691 c 1.5,0.25 2.72,0.529 2.72,0.619 0,0.83 -6.6,1.37 -10.33,0.841 -7.4,-1.051 -14.79,-5.28 -21.1,-12.091 -4.91,-5.3 -9.81,-12.689 -8.41,-12.689 0.22,0 2.8,2.41 5.73,5.36 6.91,6.95 10.98,9.99 18.28,13.64 3.46,1.73 9.5,3.72 13.11,4.32 z"
       id="path62"
       inkscape:connector-curvature="0" />
    <path
       d="m 88.950329,310.63691 -2.66,0.73 c -0.14,-0.51 -0.29,-1.04 -0.44,-1.55 -1.29,-4.58 -2.68,-10.84 -3.8,-17.11 -0.69,-3.9 -0.84,-6.16 -0.86,-13.17 -0.02,-9.17 0.46,-13.11 2.31,-18.81 1.25,-3.84 3.77,-8.95 4.65,-9.42 0.91,-0.48 0.91,-0.48 -0.07,2.38 -0.43,1.28 -0.92,3.27 -1.08,4.41 -0.16,1.13 -0.6,3.93 -0.97,6.2 -0.93,5.68 -0.92,21.06 0.01,28.6 0.36,2.89 0.79,6.62 0.96,8.27 0.28,2.83 0.97,6.14 1.95,9.47 z"
       id="path64"
       inkscape:connector-curvature="0" />
    <path
       d="m 62.470329,578.72691 c 1.39,0.07 0.15,0.13 -2.75,0.13 -2.89,0 -4.03,-0.06 -2.52,-0.13 1.51,-0.07 3.88,-0.07 5.27,0 z"
       id="path66"
       inkscape:connector-curvature="0" />
    <path
       sodipodi:nodetypes="csssssscc"
       style="fill:url(#linearGradient4018);fill-opacity:1;stroke:none"
       d="m 230.96462,43.584049 c 12.85714,58.571431 42.31617,178.398111 107.31617,184.826691 65,6.42857 84.15925,-4.19423 84.82669,4.81617 0.71428,9.64286 13.57142,26.78571 9.99999,30.35714 -3.57143,3.57143 -53.57143,2.85715 -95.71428,7.85715 -42.14286,5 -92.14286,-8.57143 -90,-23.57143 2.14285,-15 12.85714,-57.14286 6.42857,-75 C 247.39319,155.01262 217.39319,40.726907 217.39319,40.726907 l 13.57143,2.857142 z"
       id="path2483"
       inkscape:connector-curvature="0" />
    <path
       style="fill:#fce94f;fill-opacity:1;stroke:none"
       d="m 300.07176,365.01262 c 49.46428,-11.78571 75.26785,-21.78571 145.98215,-0.35714 -4.82143,7.32143 -27.58929,15.17857 -63.83929,10.89286 -36.25,-4.28572 -54.46429,-7.14286 -66.96429,-2.67857 -12.5,4.46428 -15.35714,-7.67857 -15.17857,-7.85715 z"
       id="path2511"
       sodipodi:nodetypes="ccssc"
       inkscape:connector-curvature="0" />
    <path
       style="fill:#000000;fill-opacity:1;stroke:none"
       d="m 581.23906,227.5161 c 15.9099,5.55584 116.14629,-9.80836 125.76399,-11.86929 14.14214,-3.03045 12.87944,-0.50508 1.01015,2.52538 -11.05441,2.8224 -100.25764,17.67767 -127.53176,13.13199"
       id="path2513"
       sodipodi:nodetypes="cssc"
       inkscape:connector-curvature="0" />
    <path
       sodipodi:nodetypes="cssc"
       id="path2515"
       d="m 584.89938,254.83096 c 13.46952,-10.12741 113.63511,-25.94662 123.42429,-26.90548 14.3943,-1.40994 12.42396,-3.43224 0.19505,-2.71292 -11.38934,0.66995 -100.88878,13.62158 -125.49216,26.23962"
       style="fill:#000000;fill-opacity:1;stroke:none"
       inkscape:connector-curvature="0" />
  </g>
  <g
     inkscape:groupmode="layer"
     id="layer4_Arrows"
     inkscape:label="Arrows"
     style="display:inline">
    <path
       transform="translate(216.26565,34.837469)"
       d="m 458.79866,251.93932 a 1.9571706,1.9571706 0 1 1 -3.91434,0 1.9571706,1.9571706 0 1 1 3.91434,0 z"
       sodipodi:ry="1.9571706"
       sodipodi:rx="1.9571706"
       sodipodi:cy="251.93932"
       sodipodi:cx="456.84149"
       id="path3717"
       style="fill:#000000;fill-opacity:1;stroke:#000000;stroke-width:2;stroke-linecap:butt;stroke-linejoin:round;stroke-miterlimit:4;stroke-opacity:1;stroke-dasharray:none;stroke-dashoffset:0"
       sodipodi:type="arc" />
    <path
       id="path3724"
       d="m 672.85714,286.42857 27.75692,32.83979"
       style="fill:#000000;fill-opacity:1;stroke:#000000;stroke-width:2;stroke-linecap:butt;stroke-linejoin:round;stroke-miterlimit:4;stroke-opacity:1;stroke-dasharray:none;stroke-dashoffset:0"
       sodipodi:nodetypes="cc"
       inkscape:connector-curvature="0" />
    <path
       transform="translate(168.90851,100.56068)"
       d="m 458.79866,251.93932 a 1.9571706,1.9571706 0 1 1 -3.91434,0 1.9571706,1.9571706 0 1 1 3.91434,0 z"
       sodipodi:ry="1.9571706"
       sodipodi:rx="1.9571706"
       sodipodi:cy="251.93932"
       sodipodi:cx="456.84149"
       id="path3764"
       style="fill:#000000;fill-opacity:1;stroke:#000000;stroke-width:2;stroke-linecap:butt;stroke-linejoin:round;stroke-miterlimit:4;stroke-opacity:1;stroke-dasharray:none;stroke-dashoffset:0"
       sodipodi:type="arc" />
    <path
       id="path3766"
       d="m 625.34585,352.5776 46.25963,26.708"
       style="fill:#000000;fill-opacity:1;stroke:#000000;stroke-width:2;stroke-linecap:butt;stroke-linejoin:round;stroke-miterlimit:4;stroke-opacity:1;stroke-dasharray:none;stroke-dashoffset:0"
       inkscape:connector-curvature="0" />
    <path
       sodipodi:nodetypes="cc"
       id="path3675"
       d="m 586.39356,200.48467 99.00691,-70.86154"
       style="fill:#cc0000;fill-opacity:1;stroke:#000000;stroke-width:2;stroke-linecap:butt;stroke-linejoin:round;stroke-miterlimit:4;stroke-opacity:1;stroke-dasharray:none;stroke-dashoffset:0"
       inkscape:connector-curvature="0" />
    <path
       transform="translate(127.80137,-50.153602)"
       d="m 458.79866,251.93932 a 1.9571706,1.9571706 0 1 1 -3.91434,0 1.9571706,1.9571706 0 1 1 3.91434,0 z"
       sodipodi:ry="1.9571706"
       sodipodi:rx="1.9571706"
       sodipodi:cy="251.93932"
       sodipodi:cx="456.84149"
       id="path3701"
       style="fill:#000000;fill-opacity:1;stroke:#000000;stroke-width:2;stroke-linecap:butt;stroke-linejoin:round;stroke-miterlimit:4;stroke-opacity:1;stroke-dasharray:none;stroke-dashoffset:0"
       sodipodi:type="arc" />
    <path
       transform="translate(142.68405,-13.573928)"
       d="m 458.79866,251.93932 a 1.9571706,1.9571706 0 1 1 -3.91434,0 1.9571706,1.9571706 0 1 1 3.91434,0 z"
       sodipodi:ry="1.9571706"
       sodipodi:rx="1.9571706"
       sodipodi:cy="251.93932"
       sodipodi:cx="456.84149"
       id="path3707"
       style="fill:#000000;fill-opacity:1;stroke:#000000;stroke-width:2;stroke-linecap:butt;stroke-linejoin:round;stroke-miterlimit:4;stroke-opacity:1;stroke-dasharray:none;stroke-dashoffset:0"
       sodipodi:type="arc" />
    <path
       id="path3709"
       d="m 599.273,238.36539 56.316,-37.62818"
       style="fill:#000000;fill-opacity:1;stroke:#000000;stroke-width:2;stroke-linecap:butt;stroke-linejoin:round;stroke-miterlimit:4;stroke-opacity:1;stroke-dasharray:none;stroke-dashoffset:0"
       inkscape:connector-curvature="0" />
    <path
       transform="translate(79.811882,21.036488)"
       d="m 458.79866,251.93932 a 1.9571706,1.9571706 0 1 1 -3.91434,0 1.9571706,1.9571706 0 1 1 3.91434,0 z"
       sodipodi:ry="1.9571706"
       sodipodi:rx="1.9571706"
       sodipodi:cy="251.93932"
       sodipodi:cx="456.84149"
       id="path3681"
       style="fill:#000000;fill-opacity:1;stroke:#000000;stroke-width:2;stroke-linecap:butt;stroke-linejoin:round;stroke-miterlimit:4;stroke-opacity:1;stroke-dasharray:none;stroke-dashoffset:0"
       sodipodi:type="arc" />
    <path
       sodipodi:nodetypes="cc"
       id="path3752"
       d="m 487.52029,109.89488 48.76093,162.01955"
       style="fill:#000000;fill-opacity:1;stroke:#000000;stroke-width:2;stroke-linecap:butt;stroke-linejoin:round;stroke-miterlimit:4;stroke-opacity:1;stroke-dasharray:none;stroke-dashoffset:0"
       inkscape:connector-curvature="0" />
    <path
       sodipodi:nodetypes="cc"
       id="path3671"
       d="M 456.58895,252.00245 369.56684,186.55777"
       style="fill:#cc0000;fill-opacity:1;stroke:#000000;stroke-width:2;stroke-linecap:butt;stroke-linejoin:round;stroke-miterlimit:4;stroke-opacity:1;stroke-dasharray:none;stroke-dashoffset:0"
       inkscape:connector-curvature="0" />
    <path
       id="path3673"
       d="M 479.31738,256.54813 456.56596,171.63867"
       style="fill:#cc0000;fill-opacity:1;stroke:#000000;stroke-width:2;stroke-linecap:butt;stroke-linejoin:round;stroke-miterlimit:4;stroke-opacity:1;stroke-dasharray:none;stroke-dashoffset:0"
       inkscape:connector-curvature="0" />
    <path
       transform="translate(-0.126269,-0.0631345)"
       d="m 458.79866,251.93932 a 1.9571706,1.9571706 0 1 1 -3.91434,0 1.9571706,1.9571706 0 1 1 3.91434,0 z"
       sodipodi:ry="1.9571706"
       sodipodi:rx="1.9571706"
       sodipodi:cy="251.93932"
       sodipodi:cx="456.84149"
       id="path3677"
       style="fill:#000000;fill-opacity:1;stroke:#000000;stroke-width:2;stroke-linecap:butt;stroke-linejoin:round;stroke-miterlimit:4;stroke-opacity:1;stroke-dasharray:none;stroke-dashoffset:0"
       sodipodi:type="arc" />
    <path
       transform="translate(22.475892,5.5558361)"
       d="m 458.79866,251.93932 a 1.9571706,1.9571706 0 1 1 -3.91434,0 1.9571706,1.9571706 0 1 1 3.91434,0 z"
       sodipodi:ry="1.9571706"
       sodipodi:rx="1.9571706"
       sodipodi:cy="251.93932"
       sodipodi:cx="456.84149"
       id="path3679"
       style="fill:#000000;fill-opacity:1;stroke:#000000;stroke-width:2;stroke-linecap:butt;stroke-linejoin:round;stroke-miterlimit:4;stroke-opacity:1;stroke-dasharray:none;stroke-dashoffset:0"
       sodipodi:type="arc" />
    <path
       transform="translate(1.9085093,66.096398)"
       d="m 458.79866,251.93932 a 1.9571706,1.9571706 0 1 1 -3.91434,0 1.9571706,1.9571706 0 1 1 3.91434,0 z"
       sodipodi:ry="1.9571706"
       sodipodi:rx="1.9571706"
       sodipodi:cy="251.93932"
       sodipodi:cx="456.84149"
       id="path3732"
       style="fill:#000000;fill-opacity:1;stroke:#000000;stroke-width:2;stroke-linecap:butt;stroke-linejoin:round;stroke-miterlimit:4;stroke-opacity:1;stroke-dasharray:none;stroke-dashoffset:0"
       sodipodi:type="arc" />
    <path
       sodipodi:nodetypes="cc"
       id="path3734"
       d="M 458.57143,318.03571 332.28219,481.1803"
       style="fill:#000000;fill-opacity:1;stroke:#000000;stroke-width:2;stroke-linecap:butt;stroke-linejoin:round;stroke-miterlimit:4;stroke-opacity:1;stroke-dasharray:none;stroke-dashoffset:0"
       inkscape:connector-curvature="0" />
    <path
       id="path3772"
       d="m 543.41156,330.94587 -7.98275,181.66221"
       style="fill:#000000;fill-opacity:1;stroke:#000000;stroke-width:2;stroke-linecap:butt;stroke-linejoin:round;stroke-miterlimit:4;stroke-opacity:1;stroke-dasharray:none;stroke-dashoffset:0"
       sodipodi:nodetypes="cc"
       inkscape:connector-curvature="0" />
    <path
       transform="translate(86.923624,77.592341)"
       d="m 458.79866,251.93932 a 1.9571706,1.9571706 0 1 1 -3.91434,0 1.9571706,1.9571706 0 1 1 3.91434,0 z"
       sodipodi:ry="1.9571706"
       sodipodi:rx="1.9571706"
       sodipodi:cy="251.93932"
       sodipodi:cx="456.84149"
       id="path3780"
       style="fill:#000000;fill-opacity:1;stroke:#000000;stroke-width:2;stroke-linecap:butt;stroke-linejoin:round;stroke-miterlimit:4;stroke-opacity:1;stroke-dasharray:none;stroke-dashoffset:0"
       sodipodi:type="arc" />
    <path
       id="path3726"
       d="m 608.61691,415.14208 -13.63706,61.11423"
       style="fill:#000000;fill-opacity:1;stroke:#000000;stroke-width:2;stroke-linecap:butt;stroke-linejoin:round;stroke-miterlimit:4;stroke-opacity:1;stroke-dasharray:none;stroke-dashoffset:0"
       inkscape:connector-curvature="0" />
    <path
       transform="translate(151.84601,163.37319)"
       d="m 458.79866,251.93932 a 1.9571706,1.9571706 0 1 1 -3.91434,0 1.9571706,1.9571706 0 1 1 3.91434,0 z"
       sodipodi:ry="1.9571706"
       sodipodi:rx="1.9571706"
       sodipodi:cy="251.93932"
       sodipodi:cx="456.84149"
       id="path3762"
       style="fill:#000000;fill-opacity:1;stroke:#000000;stroke-width:2;stroke-linecap:butt;stroke-linejoin:round;stroke-miterlimit:4;stroke-opacity:1;stroke-dasharray:none;stroke-dashoffset:0"
       sodipodi:type="arc" />
    <path
       id="path3748"
       d="m 257.08382,384.83751 55.55839,-60.60916"
       style="fill:#000000;fill-opacity:1;stroke:#000000;stroke-width:2;stroke-linecap:butt;stroke-linejoin:round;stroke-miterlimit:4;stroke-opacity:1;stroke-dasharray:none;stroke-dashoffset:0"
       inkscape:connector-curvature="0" />
    <path
       transform="translate(-144.83062,72.794115)"
       d="m 458.79866,251.93932 a 1.9571706,1.9571706 0 1 1 -3.91434,0 1.9571706,1.9571706 0 1 1 3.91434,0 z"
       sodipodi:ry="1.9571706"
       sodipodi:rx="1.9571706"
       sodipodi:cy="251.93932"
       sodipodi:cx="456.84149"
       id="path3750"
       style="fill:#000000;fill-opacity:1;stroke:#000000;stroke-width:2;stroke-linecap:butt;stroke-linejoin:round;stroke-miterlimit:4;stroke-opacity:1;stroke-dasharray:none;stroke-dashoffset:0"
       sodipodi:type="arc" />
    <text
       xml:space="preserve"
       style="font-size:20px;font-style:normal;font-variant:normal;font-weight:normal;font-stretch:normal;text-align:start;line-height:100%;writing-mode:lr-tb;text-anchor:start;fill:#000000;fill-opacity:1;stroke:none;font-family:DejaVu Sans;-inkscape-font-specification:DejaVu Sans"
       x="435"
       y="433"
       id="text4104"
       sodipodi:linespacing="100%"><tspan
         sodipodi:role="line"
         id="tspan4106"
         x="435"
         y="433" /></text>
    <text
       xml:space="preserve"
       style="font-size:20px;font-style:normal;font-variant:normal;font-weight:normal;font-stretch:normal;text-align:start;line-height:100%;writing-mode:lr-tb;text-anchor:start;fill:#000000;fill-opacity:1;stroke:none;font-family:DejaVu Sans;-inkscape-font-specification:DejaVu Sans"
       x="418"
       y="426.5"
       id="text4108"
       sodipodi:linespacing="100%"><tspan
         sodipodi:role="line"
         id="tspan4110"
         x="418"
         y="426.5">Tympanic</tspan><tspan
         sodipodi:role="line"
         x="418"
         y="446.5"
         id="tspan4112">Cavity</tspan></text>
    <path
       style="fill:#000000;fill-opacity:1;stroke:#000000;stroke-width:2;stroke-linecap:butt;stroke-linejoin:round;stroke-miterlimit:4;stroke-opacity:1;stroke-dasharray:none;stroke-dashoffset:0"
       d="M 471,409.5 512.5,347"
       id="path4114"
       inkscape:connector-curvature="0" />
    <path
       transform="translate(56.518032,94.562903)"
       d="m 458.79866,251.93932 a 1.9571706,1.9571706 0 1 1 -3.91434,0 1.9571706,1.9571706 0 1 1 3.91434,0 z"
       sodipodi:ry="1.9571706"
       sodipodi:rx="1.9571706"
       sodipodi:cy="251.93932"
       sodipodi:cx="456.84149"
       id="path4116"
       style="fill:#000000;fill-opacity:1;stroke:#000000;stroke-width:2;stroke-linecap:butt;stroke-linejoin:round;stroke-miterlimit:4;stroke-opacity:1;stroke-dasharray:none;stroke-dashoffset:0;display:inline"
       sodipodi:type="arc" />
  </g>
  <g
     inkscape:groupmode="layer"
     id="layer3_Labels"
     inkscape:label="Labels">
    <text
       sodipodi:linespacing="100%"
       id="text3683"
       y="162.6344"
       x="425.23108"
       style="font-size:20px;font-style:normal;font-variant:normal;font-weight:normal;font-stretch:normal;text-align:start;line-height:100%;writing-mode:lr-tb;text-anchor:start;fill:#000000;fill-opacity:1;stroke:none;font-family:DejaVu Sans;-inkscape-font-specification:DejaVu Sans"
       xml:space="preserve"><tspan
         y="162.6344"
         x="425.23108"
         id="tspan3685"
         sodipodi:role="line">Incus</tspan></text>
    <text
       sodipodi:linespacing="100%"
       id="text3687"
       y="179.8024"
       x="322.62997"
       style="font-size:20px;font-style:normal;font-variant:normal;font-weight:normal;font-stretch:normal;text-align:start;line-height:100%;writing-mode:lr-tb;text-anchor:start;fill:#000000;fill-opacity:1;stroke:none;font-family:DejaVu Sans;-inkscape-font-specification:DejaVu Sans"
       xml:space="preserve"><tspan
         y="179.8024"
         x="322.62997"
         id="tspan3689"
         sodipodi:role="line">Malleus</tspan></text>
    <text
       sodipodi:linespacing="100%"
       id="text3691"
       y="116.53033"
       x="767.74127"
       style="font-size:20px;font-style:normal;font-variant:normal;font-weight:normal;font-stretch:normal;text-align:end;line-height:100%;writing-mode:lr-tb;text-anchor:end;fill:#000000;fill-opacity:1;stroke:none;font-family:DejaVu Sans;-inkscape-font-specification:DejaVu Sans"
       xml:space="preserve"><tspan
         y="116.53033"
         x="767.74127"
         id="tspan3693"
         sodipodi:role="line">Semicircular</tspan><tspan
         id="tspan3695"
         y="136.53033"
         x="767.74127"
         sodipodi:role="line">Canals</tspan></text>
    <text
       sodipodi:linespacing="100%"
       id="text3703"
       y="183.76767"
       x="658.85168"
       style="font-size:20px;font-style:normal;font-variant:normal;font-weight:normal;font-stretch:normal;text-align:start;line-height:100%;writing-mode:lr-tb;text-anchor:start;fill:#000000;fill-opacity:1;stroke:none;font-family:DejaVu Sans;-inkscape-font-specification:DejaVu Sans"
       xml:space="preserve"><tspan
         y="183.76767"
         x="658.85168"
         id="tspan3705"
         sodipodi:role="line">Vestibular</tspan><tspan
         y="203.76767"
         x="658.85168"
         sodipodi:role="line"
         id="tspan4102">Nerve</tspan></text>
    <text
       sodipodi:linespacing="100%"
       id="text3711"
       y="335.43539"
       x="700.08661"
       style="font-size:20px;font-style:normal;font-variant:normal;font-weight:normal;font-stretch:normal;text-align:start;line-height:100%;writing-mode:lr-tb;text-anchor:start;fill:#000000;fill-opacity:1;stroke:none;font-family:DejaVu Sans;-inkscape-font-specification:DejaVu Sans"
       xml:space="preserve"><tspan
         y="335.43539"
         x="700.08661"
         id="tspan3713"
         sodipodi:role="line">Cochlear</tspan><tspan
         id="tspan3715"
         y="355.43539"
         x="700.08661"
         sodipodi:role="line">Nerve</tspan></text>
    <text
       sodipodi:linespacing="100%"
       id="text3728"
       y="497.4086"
       x="560.19043"
       style="font-size:20px;font-style:normal;font-variant:normal;font-weight:normal;font-stretch:normal;text-align:start;line-height:100%;writing-mode:lr-tb;text-anchor:start;fill:#000000;fill-opacity:1;stroke:none;font-family:DejaVu Sans;-inkscape-font-specification:DejaVu Sans"
       xml:space="preserve"><tspan
         y="497.4086"
         x="560.19043"
         id="tspan3730"
         sodipodi:role="line">Eustachian Tube</tspan></text>
    <text
       sodipodi:linespacing="100%"
       id="text3736"
       y="500.63956"
       x="324.94171"
       style="font-size:20px;font-style:normal;font-variant:normal;font-weight:normal;font-stretch:normal;text-align:center;line-height:100%;writing-mode:lr-tb;text-anchor:middle;fill:#000000;fill-opacity:1;stroke:none;font-family:DejaVu Sans;-inkscape-font-specification:DejaVu Sans"
       xml:space="preserve"><tspan
         y="500.63956"
         x="324.94171"
         id="tspan3738"
         sodipodi:role="line">Tympanic</tspan><tspan
         id="tspan3740"
         y="520.63953"
         x="324.94171"
         sodipodi:role="line">Membrane</tspan></text>
    <text
       sodipodi:linespacing="100%"
       id="text3742"
       y="410.0304"
       x="253.40614"
       style="font-size:20px;font-style:normal;font-variant:normal;font-weight:normal;font-stretch:normal;text-align:center;line-height:100%;writing-mode:lr-tb;text-anchor:middle;fill:#000000;fill-opacity:1;stroke:none;font-family:DejaVu Sans;-inkscape-font-specification:DejaVu Sans"
       xml:space="preserve"><tspan
         y="410.0304"
         x="253.40614"
         id="tspan3744"
         sodipodi:role="line">External</tspan><tspan
         id="tspan3746"
         y="430.0304"
         x="253.40614"
         sodipodi:role="line">Auditory Canal</tspan></text>
    <text
       sodipodi:linespacing="100%"
       id="text3754"
       y="62.668442"
       x="481.18634"
       style="font-size:20px;font-style:normal;font-variant:normal;font-weight:normal;font-stretch:normal;text-align:center;line-height:100%;writing-mode:lr-tb;text-anchor:middle;fill:#000000;fill-opacity:1;stroke:none;font-family:DejaVu Sans;-inkscape-font-specification:DejaVu Sans"
       xml:space="preserve"><tspan
         y="62.668442"
         x="481.18634"
         id="tspan3756"
         sodipodi:role="line">Stapes</tspan><tspan
         id="tspan3758"
         y="82.668442"
         x="484.36993"
         sodipodi:role="line">(attached to </tspan><tspan
         id="tspan3760"
         y="102.66844"
         x="481.18634"
         sodipodi:role="line">oval window)</tspan></text>
    <text
       sodipodi:linespacing="100%"
       id="text3768"
       y="391.82202"
       x="674.13623"
       style="font-size:20px;font-style:normal;font-variant:normal;font-weight:normal;font-stretch:normal;text-align:start;line-height:100%;writing-mode:lr-tb;text-anchor:start;fill:#000000;fill-opacity:1;stroke:none;font-family:DejaVu Sans;-inkscape-font-specification:DejaVu Sans"
       xml:space="preserve"><tspan
         y="391.82202"
         x="674.13623"
         id="tspan3770"
         sodipodi:role="line">Cochlea</tspan></text>
    <text
       sodipodi:linespacing="100%"
       id="text3774"
       y="531.25024"
       x="534.1004"
       style="font-size:20px;font-style:normal;font-variant:normal;font-weight:normal;font-stretch:normal;text-align:center;line-height:100%;writing-mode:lr-tb;text-anchor:middle;fill:#000000;fill-opacity:1;stroke:none;font-family:DejaVu Sans;-inkscape-font-specification:DejaVu Sans"
       xml:space="preserve"><tspan
         y="531.25024"
         x="534.1004"
         id="tspan3776"
         sodipodi:role="line">Round</tspan><tspan
         id="tspan3778"
         y="551.25024"
         x="534.1004"
         sodipodi:role="line">Window</tspan></text>
  </g>
</svg>
